<svg id="グループ_1498" data-name="グループ 1498" xmlns="http://www.w3.org/2000/svg" width="120" height="45.714" viewBox="0 0 120 45.714">
  <g id="グループ_1487" data-name="グループ 1487">
    <path id="パス_2243" data-name="パス 2243" d="M338.459,284.731h4.983l5.435,13.944h-5.1l-.73-2.048h-4.43l-.69,2.048h-4.963Zm2.42,4.865-1.141,3.446H342Z" transform="translate(-332.962 -282.997)" fill="#0068b7"/>
    <path id="パス_2244" data-name="パス 2244" d="M400.141,297.1h4.431v1.142h.039a3.31,3.31,0,0,1,1.168-1,3.658,3.658,0,0,1,1.778-.423,3.716,3.716,0,0,1,1.8.393,3.225,3.225,0,0,1,1.138,1.016,3.913,3.913,0,0,1,.59,1.387,7.225,7.225,0,0,1,.166,1.536v6.3H406.7v-5.515a1.84,1.84,0,0,0-.248-1.1.878.878,0,0,0-.737-.316.9.9,0,0,0-.739.365,1.687,1.687,0,0,0-.286,1.054v5.515h-4.548Z" transform="translate(-381.764 -291.784)" fill="#0068b7"/>
    <path id="パス_2245" data-name="パス 2245" d="M451.477,280.718a2.154,2.154,0,0,1,.188-.9,2.272,2.272,0,0,1,.51-.739,2.477,2.477,0,0,1,.76-.5,2.29,2.29,0,0,1,.923-.188,2.122,2.122,0,0,1,.888.188,2.565,2.565,0,0,1,.738.5,2.322,2.322,0,0,1,.511.739,2.171,2.171,0,0,1,.188.9,2.243,2.243,0,0,1-.7,1.645,2.552,2.552,0,0,1-.738.482,2.239,2.239,0,0,1-.888.177,2.419,2.419,0,0,1-.923-.177,2.468,2.468,0,0,1-.76-.482,2.164,2.164,0,0,1-.51-.728,2.21,2.21,0,0,1-.188-.916m.079,2.995H456.1v10.359h-4.548Z" transform="translate(-419.057 -278.393)" fill="#0068b7"/>
    <path id="パス_2246" data-name="パス 2246" d="M486.04,307.463v-5.435a2.5,2.5,0,0,0-.2-1.143.689.689,0,0,0-.652-.355.9.9,0,0,0-.639.316,1.6,1.6,0,0,0-.307,1.123v5.495H479.7V297.1h4.432v1.142h.039a3.348,3.348,0,0,1,.481-.5,4.143,4.143,0,0,1,.651-.453,3.606,3.606,0,0,1,1.8-.463,4.02,4.02,0,0,1,1.774.364,2.7,2.7,0,0,1,1.181,1.132,4.547,4.547,0,0,1,1.26-1.063,3.745,3.745,0,0,1,1.892-.433,3.32,3.32,0,0,1,2.964,1.516,4.2,4.2,0,0,1,.59,1.409,6.384,6.384,0,0,1,.169,1.407v6.3h-4.55v-5.515a2.132,2.132,0,0,0-.206-1.132.743.743,0,0,0-.642-.287.821.821,0,0,0-.671.365,1.774,1.774,0,0,0-.274,1.074v5.495Z" transform="translate(-439.558 -291.784)" fill="#0068b7"/>
    <path id="パス_2247" data-name="パス 2247" d="M557.651,300.572a.79.79,0,0,0-.324-.7,1.471,1.471,0,0,0-.858-.228,2.736,2.736,0,0,0-1.19.267,4.809,4.809,0,0,0-.995.62l-2.265-2.246a6.617,6.617,0,0,1,2.247-1.4,7.513,7.513,0,0,1,2.678-.491,6.231,6.231,0,0,1,2.442.413,3.754,3.754,0,0,1,1.527,1.142,4.369,4.369,0,0,1,.786,1.693,8.9,8.9,0,0,1,.228,2.048v5.456h-4.117v-.827h-.04a2.16,2.16,0,0,1-1.122.846,4.263,4.263,0,0,1-1.418.256,4.717,4.717,0,0,1-1.251-.176,3.469,3.469,0,0,1-1.162-.572,3.047,3.047,0,0,1-.857-1.025,3.269,3.269,0,0,1-.335-1.555,2.676,2.676,0,0,1,.561-1.763,3.838,3.838,0,0,1,1.428-1.063,6.91,6.91,0,0,1,1.94-.522,16.5,16.5,0,0,1,2.1-.138Zm.04,2.285a4.951,4.951,0,0,0-1.613.216.807.807,0,0,0-.61.808.637.637,0,0,0,.1.365.858.858,0,0,0,.256.246,1.29,1.29,0,0,0,.344.149,1.467,1.467,0,0,0,1.39-.365,1.483,1.483,0,0,0,.394-1.063v-.355Z" transform="translate(-491.809 -291.472)" fill="#0068b7"/>
    <path id="パス_2248" data-name="パス 2248" d="M656.055,280.718a2.17,2.17,0,0,1,.188-.9,2.362,2.362,0,0,1,.511-.739,2.5,2.5,0,0,1,.76-.5,2.307,2.307,0,0,1,.926-.188,2.128,2.128,0,0,1,.887.188,2.572,2.572,0,0,1,.736.5,2.332,2.332,0,0,1,.513.739,2.17,2.17,0,0,1,.187.9,2.231,2.231,0,0,1-.7,1.645,2.558,2.558,0,0,1-.736.482,2.246,2.246,0,0,1-.887.177,2.436,2.436,0,0,1-.926-.177,2.493,2.493,0,0,1-.76-.482,2.245,2.245,0,0,1-.7-1.645m.08,2.995h4.55v10.359h-4.55Z" transform="translate(-567.672 -278.393)" fill="#0068b7"/>
    <path id="パス_2249" data-name="パス 2249" d="M684,297.1h4.432v1.142h.039a3.319,3.319,0,0,1,1.17-1,3.644,3.644,0,0,1,1.776-.423,3.706,3.706,0,0,1,1.8.393,3.226,3.226,0,0,1,1.14,1.016,3.89,3.89,0,0,1,.589,1.387,7.3,7.3,0,0,1,.168,1.536v6.3h-4.552v-5.515a1.862,1.862,0,0,0-.243-1.1.974.974,0,0,0-1.479.049,1.669,1.669,0,0,0-.284,1.054v5.515H684Z" transform="translate(-587.969 -291.784)" fill="#0068b7"/>
    <path id="パス_2250" data-name="パス 2250" d="M741.819,302.068c0,.17,0,.344-.01.522s-.014.325-.028.444h-6.974a.9.9,0,0,0,.186.492,1.65,1.65,0,0,0,.415.374,1.863,1.863,0,0,0,.551.237,2.464,2.464,0,0,0,.621.078,2.21,2.21,0,0,0,1.052-.227,2.021,2.021,0,0,0,.643-.5l3.227,1.634a4.74,4.74,0,0,1-2,1.773,6.756,6.756,0,0,1-3.042.65,6.9,6.9,0,0,1-2.187-.355,5.543,5.543,0,0,1-1.88-1.055,5.1,5.1,0,0,1-1.31-1.742,5.6,5.6,0,0,1-.494-2.423,5.7,5.7,0,0,1,.454-2.313,5.138,5.138,0,0,1,1.23-1.754,5.527,5.527,0,0,1,1.831-1.111,6.346,6.346,0,0,1,2.255-.394,5.7,5.7,0,0,1,2.228.423A5.027,5.027,0,0,1,740.313,298a5.307,5.307,0,0,1,1.113,1.8,6.358,6.358,0,0,1,.393,2.265M737.9,300.59a1.151,1.151,0,0,0-.406-.9,1.6,1.6,0,0,0-1.093-.355,1.571,1.571,0,0,0-1.162.414,1.516,1.516,0,0,0-.473.846Z" transform="translate(-621.819 -291.472)" fill="#0068b7"/>
    <path id="パス_2251" data-name="パス 2251" d="M604.942,281.274V291.2a8.381,8.381,0,0,1-.208,1.9,3.948,3.948,0,0,1-.738,1.576,3.685,3.685,0,0,1-1.436,1.082,5.646,5.646,0,0,1-2.266.4v-14.89Z" transform="translate(-527.164 -280.486)" fill="#0068b7"/>
    <path id="パス_2252" data-name="パス 2252" d="M628.312,281.274V291.2a8.448,8.448,0,0,0,.207,1.9,3.965,3.965,0,0,0,.738,1.576,3.725,3.725,0,0,0,1.438,1.082,5.62,5.62,0,0,0,2.264.4v-14.89Z" transform="translate(-547.518 -280.486)" fill="#0068b7"/>
  </g>
  <g id="グループ_1488" data-name="グループ 1488" transform="translate(1.053 22.864)">
    <path id="パス_2253" data-name="パス 2253" d="M349.779,380.5a5.331,5.331,0,0,1,1.372.546,4.944,4.944,0,0,1,1.2.952,4.344,4.344,0,0,1,.84,1.331,4.413,4.413,0,0,1,.309,1.68,5.269,5.269,0,0,1-.658,2.731,5.326,5.326,0,0,1-1.737,1.792,7.407,7.407,0,0,1-2.465.98,13.622,13.622,0,0,1-2.842.294h-8.989V370.975h8.149a19.463,19.463,0,0,1,2.563.182,8.416,8.416,0,0,1,2.507.729,4.919,4.919,0,0,1,1.9,1.6,4.622,4.622,0,0,1,.755,2.758,4.181,4.181,0,0,1-.8,2.633,4.739,4.739,0,0,1-2.114,1.54Zm-6.749-4.34v2.436h1.792a1.921,1.921,0,0,0,1.149-.322,1.142,1.142,0,0,0,.448-.994.915.915,0,0,0-.477-.84,2.474,2.474,0,0,0-1.26-.279Zm0,6.721v2.688h1.988a2.149,2.149,0,0,0,1.275-.349,1.179,1.179,0,0,0,.489-1.023.971.971,0,0,0-.21-.644,1.6,1.6,0,0,0-.518-.406,2.277,2.277,0,0,0-.658-.21,4.157,4.157,0,0,0-.658-.056Z" transform="translate(-336.813 -368.513)" fill="#549b35"/>
    <path id="パス_2254" data-name="パス 2254" d="M471.265,395.625q0,.364-.014.742t-.043.63H461.3a1.257,1.257,0,0,0,.266.7,2.291,2.291,0,0,0,.588.532,2.667,2.667,0,0,0,.784.336,3.514,3.514,0,0,0,.883.112,3.149,3.149,0,0,0,1.5-.322,2.84,2.84,0,0,0,.91-.714l4.593,2.325a6.766,6.766,0,0,1-2.842,2.521,9.629,9.629,0,0,1-4.328.924,9.777,9.777,0,0,1-3.107-.5,7.949,7.949,0,0,1-2.676-1.5A7.322,7.322,0,0,1,456,398.929a8,8,0,0,1-.7-3.444,8.117,8.117,0,0,1,.644-3.291,7.381,7.381,0,0,1,1.75-2.492,7.833,7.833,0,0,1,2.6-1.583,9.088,9.088,0,0,1,3.207-.561,8.07,8.07,0,0,1,3.165.6,7.172,7.172,0,0,1,2.45,1.681,7.55,7.55,0,0,1,1.583,2.562,9.06,9.06,0,0,1,.56,3.221m-5.573-2.1a1.641,1.641,0,0,0-.575-1.289,2.275,2.275,0,0,0-1.553-.5,2.233,2.233,0,0,0-1.653.588,2.14,2.14,0,0,0-.671,1.2Z" transform="translate(-422.889 -380.56)" fill="#549b35"/>
    <path id="パス_2255" data-name="パス 2255" d="M537.706,395.625c0,.242-.005.489-.014.742s-.025.463-.042.63h-9.914a1.257,1.257,0,0,0,.266.7,2.287,2.287,0,0,0,.588.532,2.679,2.679,0,0,0,.784.336,3.52,3.52,0,0,0,.883.112,3.152,3.152,0,0,0,1.5-.322,2.835,2.835,0,0,0,.909-.714l4.594,2.325a6.769,6.769,0,0,1-2.843,2.521,9.625,9.625,0,0,1-4.327.924,9.786,9.786,0,0,1-3.108-.5,7.928,7.928,0,0,1-2.674-1.5,7.294,7.294,0,0,1-1.862-2.479,7.983,7.983,0,0,1-.7-3.444,8.117,8.117,0,0,1,.644-3.291,7.388,7.388,0,0,1,1.75-2.492,7.816,7.816,0,0,1,2.605-1.583,9.074,9.074,0,0,1,3.206-.561,8.074,8.074,0,0,1,3.165.6,7.172,7.172,0,0,1,2.45,1.681,7.566,7.566,0,0,1,1.583,2.562,9.061,9.061,0,0,1,.56,3.221m-5.574-2.1a1.643,1.643,0,0,0-.573-1.289,2.279,2.279,0,0,0-1.555-.5,2.23,2.23,0,0,0-1.652.588,2.145,2.145,0,0,0-.673,1.2Z" transform="translate(-471.155 -380.56)" fill="#549b35"/>
    <path id="パス_2256" data-name="パス 2256" d="M676.952,395.625q0,.364-.014.742t-.043.63h-9.913a1.257,1.257,0,0,0,.266.7,2.293,2.293,0,0,0,.588.532,2.668,2.668,0,0,0,.784.336,3.521,3.521,0,0,0,.883.112,3.149,3.149,0,0,0,1.5-.322,2.84,2.84,0,0,0,.91-.714l4.593,2.325a6.766,6.766,0,0,1-2.842,2.521,9.629,9.629,0,0,1-4.328.924,9.782,9.782,0,0,1-3.107-.5,7.95,7.95,0,0,1-2.676-1.5,7.322,7.322,0,0,1-1.863-2.479,8,8,0,0,1-.7-3.444,8.117,8.117,0,0,1,.644-3.291,7.381,7.381,0,0,1,1.751-2.492,7.832,7.832,0,0,1,2.6-1.583,9.088,9.088,0,0,1,3.207-.561,8.07,8.07,0,0,1,3.165.6,7.172,7.172,0,0,1,2.45,1.681,7.549,7.549,0,0,1,1.582,2.562,9.061,9.061,0,0,1,.56,3.221m-5.573-2.1a1.641,1.641,0,0,0-.575-1.289,2.273,2.273,0,0,0-1.553-.5,2.233,2.233,0,0,0-1.653.588,2.14,2.14,0,0,0-.671,1.2Z" transform="translate(-572.309 -380.56)" fill="#549b35"/>
    <path id="パス_2257" data-name="パス 2257" d="M419.225,388.174a4.056,4.056,0,0,0-2.2.588,3.915,3.915,0,0,0-1.414,1.485h-.057v-1.68H409.34V403.3h6.469v-7.14a2.391,2.391,0,0,1,.756-1.793,2.785,2.785,0,0,1,2.016-.728,6.369,6.369,0,0,1,.687.042,4.614,4.614,0,0,1,.68.125v-5.587a5.925,5.925,0,0,0-.722-.04" transform="translate(-389.5 -381.007)" fill="#549b35"/>
    <path id="パス_2258" data-name="パス 2258" d="M738.892,388.174a4.056,4.056,0,0,0-2.2.588,3.91,3.91,0,0,0-1.415,1.485h-.056v-1.68h-6.217V403.3h6.469v-7.14a2.394,2.394,0,0,1,.755-1.793,2.788,2.788,0,0,1,2.017-.728,6.344,6.344,0,0,1,.686.042,4.563,4.563,0,0,1,.68.125v-5.587a5.9,5.9,0,0,0-.721-.04" transform="translate(-621.721 -381.007)" fill="#549b35"/>
    <path id="パス_2259" data-name="パス 2259" d="M605.818,366.232a5.5,5.5,0,0,0-1.026-2.191,5.154,5.154,0,0,0-2-1.507,7.83,7.83,0,0,0-3.154-.559v8.736h-.058a4.112,4.112,0,0,0-1.708-1.163,5.946,5.946,0,0,0-2.129-.406,6.1,6.1,0,0,0-2.913.672,6.426,6.426,0,0,0-2.1,1.764,7.892,7.892,0,0,0-1.274,2.464,9.189,9.189,0,0,0-.435,2.8,9.547,9.547,0,0,0,.435,2.856,8,8,0,0,0,1.274,2.506,6.348,6.348,0,0,0,2.1,1.778,6.091,6.091,0,0,0,2.914.672,6.668,6.668,0,0,0,2.605-.517,4.3,4.3,0,0,0,1.876-1.415h.056v1.54h5.823V368.875a11.7,11.7,0,0,0-.288-2.643m-6.559,12.376a2.4,2.4,0,0,1-1.835.728,2.239,2.239,0,0,1-1.792-.714,2.628,2.628,0,0,1-.615-1.779,2.564,2.564,0,0,1,.615-1.708,2.215,2.215,0,0,1,1.792-.728,2.418,2.418,0,0,1,2.521,2.436,2.478,2.478,0,0,1-.686,1.764" transform="translate(-520.03 -361.975)" fill="#549b35"/>
  </g>
</svg>
