<svg width="78" height="77" fill="none" xmlns="http://www.w3.org/2000/svg"><path d="M50.192 3.292c.528-.607 1.53-.061 1.613.878l1.464 16.5c4.403 4.717 6.674 10.852 6.674 17.038 0 12.444-11.822 18.485-26.743 18.917a1.51 1.51 0 0 0 .02-.235V43.946a4.954 4.954 0 1 0-3 .168V56.39c0 .084.009.167.022.248-15.166-.305-27.265-6.342-27.265-18.93 0-5.493 1.79-10.946 5.274-15.401a1.173 1.173 0 0 1-.027-.385L9.8 4.17c.083-.94 1.085-1.485 1.612-.878l9.11 10.48c3.222-1.086 6.873-1.694 10.938-1.694 3.637 0 6.941.489 9.904 1.37l8.828-10.156ZM17.554 44.906l-5.41.475a1 1 0 0 0 .174 1.992l5.41-.474a1 1 0 0 0-.174-1.993Zm27.285 0a1.001 1.001 0 0 0-.175 1.994l5.41.474a1 1 0 0 0 .175-1.993l-5.41-.475Zm-31.582-6.482a1 1 0 0 0-.871 1.8l4.888 2.364a1 1 0 0 0 .87-1.8l-4.887-2.364Zm37.215.466a1.001 1.001 0 0 0-1.336-.466l-4.889 2.363a1 1 0 0 0 .871 1.801l4.889-2.363a1 1 0 0 0 .465-1.335ZM25.267 26.936a2.477 2.477 0 1 0 0 4.954 2.477 2.477 0 0 0 0-4.954Zm12.384 0a2.477 2.477 0 1 0 0 4.953 2.477 2.477 0 0 0 0-4.953ZM20.6 62.27c4.577-.676 8.788 2.164 9.404 6.341.339 2.293-.589 3.75-2.25 4.713l-.226-1.535c-.046-.31-.406-.514-.804-.456-.398.059-.683.359-.638.669l.29 1.96c-.85.311-1.81.546-2.837.735l-.335-2.27c-.046-.31-.406-.514-.803-.456-.398.059-.684.359-.638.669l.337 2.286c-1.02.14-2 .228-2.912.227l-.308-2.088c-.046-.31-.405-.514-.803-.456-.398.059-.683.359-.637.669l.262 1.781c-2.268-.305-3.889-1.41-4.271-4.002-.617-4.178 2.593-8.112 7.17-8.787Zm22.649.032c4.553.817 7.64 4.85 6.893 9.006-.41 2.281-1.753 3.368-3.634 3.751l.275-1.527c.055-.309-.221-.617-.617-.688-.396-.072-.762.122-.817.43l-.35 1.95c-.906.025-1.89-.058-2.923-.207l.405-2.258c.055-.308-.22-.617-.616-.688-.396-.07-.762.122-.818.43l-.408 2.275c-1.013-.193-1.97-.42-2.833-.712l.373-2.077c.055-.309-.22-.617-.617-.688-.395-.071-.76.122-.816.43l-.318 1.773c-2.053-1.012-3.238-2.577-2.776-5.155.747-4.156 5.044-6.863 9.597-6.045Z" fill="#046E3B"/><path d="M44.477 56.515c.735-.227 1.526.153 1.765.85.24.695-.163 1.444-.9 1.672-5.018 1.55-9.13 2.347-13.475 2.39-4.33.042-8.81-.666-14.556-2.022-.75-.177-1.206-.897-1.018-1.607.189-.71.95-1.143 1.7-.966 5.652 1.334 9.867 1.98 13.85 1.942 3.967-.039 7.785-.76 12.634-2.259Zm22.335-23.466c-.19-1.117.942-1.93 2.526-1.816 1.585.114 3.024 1.113 3.214 2.23 1.295 7.622 1.34 13.573-.32 19.363-1.653 5.771-4.97 11.278-10.183 18.06-.681.886-2.403 1.044-3.847.354-1.443-.69-2.06-1.968-1.38-2.854 5.128-6.672 8.209-11.863 9.73-17.172 1.515-5.29 1.511-10.802.26-18.165Z" fill="#046E3B"/></svg>