<svg width="78" height="77" fill="none" xmlns="http://www.w3.org/2000/svg"><path d="M49.704 3.454c.527-.606 1.529-.061 1.612.878l1.464 16.5c4.404 4.717 6.675 10.852 6.675 17.038 0 12.444-11.823 18.486-26.744 18.917.013-.076.02-.155.02-.235V44.109a4.954 4.954 0 1 0-3 .168v12.275c.001.085.009.167.022.248-15.165-.305-27.265-6.341-27.265-18.93 0-5.492 1.79-10.946 5.274-15.401a1.173 1.173 0 0 1-.027-.385L9.31 4.332c.083-.939 1.085-1.484 1.612-.878l9.11 10.48c3.223-1.085 6.873-1.693 10.938-1.693 3.637 0 6.941.488 9.905 1.369l8.828-10.156ZM17.064 45.07l-5.41.474a1 1 0 0 0 .176 1.992l5.41-.474a1 1 0 0 0-.175-1.992Zm27.286 0a1.001 1.001 0 0 0-.175 1.993l5.41.474a1 1 0 0 0 .175-1.993l-5.41-.474Zm-31.582-6.483a1 1 0 0 0-.871 1.801l4.889 2.363a1 1 0 0 0 .87-1.8l-4.888-2.364Zm37.215.466a1.001 1.001 0 0 0-1.336-.466l-4.889 2.364a1 1 0 0 0 .871 1.8l4.89-2.363a1 1 0 0 0 .464-1.335ZM24.778 27.098a2.477 2.477 0 1 0 0 4.954 2.477 2.477 0 0 0 0-4.954Zm12.385 0a2.477 2.477 0 1 0 0 4.953 2.477 2.477 0 0 0 0-4.953ZM20.11 62.432c4.577-.675 8.787 2.164 9.404 6.342.338 2.292-.59 3.75-2.25 4.713l-.227-1.535c-.046-.31-.405-.515-.803-.456s-.684.358-.638.668l.29 1.96c-.85.312-1.81.547-2.837.735l-.335-2.27c-.046-.31-.406-.514-.804-.455-.397.058-.683.358-.637.668l.337 2.286c-1.021.14-2 .229-2.912.228l-.308-2.088c-.046-.31-.405-.515-.803-.456-.398.058-.683.358-.638.668l.263 1.782c-2.268-.306-3.89-1.411-4.271-4.002-.617-4.178 2.593-8.112 7.17-8.788Zm22.65.032c4.553.818 7.64 4.85 6.893 9.007-.41 2.28-1.753 3.367-3.634 3.75l.274-1.527c.055-.308-.221-.617-.617-.688-.395-.071-.762.122-.817.43l-.35 1.95c-.905.025-1.89-.058-2.923-.206l.406-2.258c.055-.309-.221-.617-.617-.688-.396-.072-.762.122-.818.43l-.408 2.274c-1.012-.192-1.97-.42-2.833-.712l.373-2.077c.055-.308-.22-.617-.616-.688-.396-.07-.761.122-.817.43l-.318 1.773c-2.053-1.012-3.238-2.577-2.775-5.154.746-4.157 5.043-6.864 9.596-6.046Z" fill="#0067B6"/><path d="M43.988 56.678c.736-.227 1.527.153 1.766.849.239.696-.164 1.444-.9 1.672-5.018 1.551-9.13 2.347-13.475 2.39-4.33.042-8.81-.665-14.556-2.021-.75-.177-1.206-.897-1.018-1.608.188-.71.95-1.142 1.7-.965 5.652 1.333 9.866 1.98 13.849 1.941 3.968-.039 7.786-.76 12.634-2.258Zm22.334-23.467c-.19-1.117.941-1.93 2.526-1.816 1.585.115 3.024 1.113 3.214 2.23 1.295 7.622 1.34 13.573-.32 19.363-1.653 5.772-4.97 11.278-10.183 18.061-.681.886-2.404 1.044-3.847.353-1.444-.69-2.061-1.968-1.38-2.854 5.128-6.672 8.209-11.863 9.73-17.171 1.515-5.29 1.511-10.803.26-18.166Z" fill="#0067B6"/></svg>