<svg width="81" height="78" fill="none" xmlns="http://www.w3.org/2000/svg"><path d="M77.919 18.554c-1.982-3.32-4.768-6.477-6.648-8.135-4.137-3.645-7.596-3.55-9.29-3.17a6.469 6.469 0 0 0-1.865.732c-2.922-2.134-6.47-3.18-10.753-3.18s-7.83 1.046-10.753 3.18a6.472 6.472 0 0 0-1.866-.731c-1.693-.381-5.152-.476-9.288 3.17-1.881 1.656-4.667 4.815-6.649 8.135-2.702 4.526-3.299 8.198-1.771 10.914 1.8 3.202 4.576 4.096 6.791 4.339-.53 2.093-.854 4.338-.854 7.122 0 3.789.868 7.051 2.58 9.695 1.506 2.325 3.672 4.185 6.438 5.53 4.316 2.098 9.368 2.624 13.341 2.736V46.222c-2.46-1.16-4.857-4.064-4.857-6.379 0-3.899 4.312-3.899 6.888-3.899 2.576 0 6.888 0 6.888 3.9 0 2.314-2.396 5.218-4.856 6.378v12.669c3.972-.112 9.025-.638 13.34-2.736 2.766-1.345 4.932-3.206 6.438-5.53 1.712-2.644 2.58-5.906 2.58-9.696 0-2.783-.324-5.029-.854-7.122 2.216-.243 4.992-1.137 6.792-4.338 1.527-2.716.93-6.388-1.772-10.915ZM43.044 30.042a2.503 2.503 0 0 1-2.492-2.512 2.503 2.503 0 0 1 2.492-2.51 2.503 2.503 0 0 1 2.493 2.51 2.503 2.503 0 0 1-2.493 2.512Zm12.62.019a2.521 2.521 0 0 1-2.513-2.53A2.521 2.521 0 0 1 55.663 25a2.521 2.521 0 0 1 2.51 2.53 2.521 2.521 0 0 1-2.51 2.53ZM30.802 61.717c5.689 0 10.3 4.157 10.3 9.286 0 2.814-1.39 4.4-3.583 5.262v-1.884c0-.381-.401-.69-.896-.69-.494 0-.895.31-.895.69v2.406c-1.09.225-2.3.338-3.584.383v-2.79c0-.38-.401-.689-.896-.689-.494 0-.895.31-.896.69v2.806c-1.267-.013-2.474-.08-3.582-.244v-2.562c0-.381-.402-.69-.896-.69s-.895.31-.895.69v2.186c-2.705-.77-4.479-2.384-4.479-5.564 0-5.129 4.613-9.286 10.302-9.286Zm37.621 0c5.689 0 10.3 4.157 10.3 9.286 0 2.814-1.39 4.4-3.583 5.262v-1.884c0-.381-.401-.69-.896-.69-.494 0-.895.31-.895.69v2.406c-1.09.225-2.3.338-3.583.383v-2.79c0-.38-.402-.689-.897-.689-.494 0-.895.31-.895.69v2.806c-1.267-.013-2.475-.08-3.583-.244v-2.562c0-.381-.402-.69-.896-.69s-.895.31-.895.69v2.186c-2.705-.77-4.479-2.384-4.479-5.564 0-5.129 4.613-9.286 10.302-9.286Z" fill="#046E3B"/><path d="M66.395 56.562a1.797 1.797 0 0 1 2.271 1.109 1.764 1.764 0 0 1-1.123 2.242c-6.392 2.136-11.638 3.251-17.191 3.366-5.536.114-11.276-.77-18.644-2.502a1.768 1.768 0 0 1-1.328-2.13 1.793 1.793 0 0 1 2.158-1.31c7.248 1.703 12.647 2.51 17.739 2.405 5.073-.105 9.943-1.117 16.118-3.18ZM11.137 44.245c.308-.94-.576-1.786-1.976-1.887-1.4-.101-3.968 1.393-5.226 3.857-.693 1.663-2.553 4.224-1.843 9.431.707 5.19 4.566 10.799 10.562 14.259.482.85 1.532.532 3.317.79 1.35-.414 3.169.538 2.687-.313-3.63-6.406-6.774-13.252-7.425-18.027-.649-4.757-.096-8.11-.096-8.11Z" fill="#046E3B"/></svg>