<svg width="81" height="77" fill="none" xmlns="http://www.w3.org/2000/svg"><path d="M77.432 18.224c-1.983-3.32-4.768-6.478-6.649-8.136-4.136-3.645-7.595-3.55-9.288-3.169a6.469 6.469 0 0 0-1.867.732c-2.922-2.135-6.469-3.18-10.752-3.18-4.284 0-7.83 1.045-10.753 3.18a6.472 6.472 0 0 0-1.866-.732c-1.694-.38-5.153-.476-9.289 3.17-1.88 1.657-4.666 4.815-6.648 8.135-2.703 4.526-3.299 8.198-1.772 10.914 1.8 3.202 4.576 4.096 6.792 4.339-.53 2.093-.855 4.339-.855 7.122 0 3.79.869 7.051 2.581 9.695 1.506 2.325 3.672 4.185 6.438 5.53 4.316 2.099 9.368 2.624 13.34 2.736V45.892c-2.46-1.16-4.856-4.065-4.856-6.38 0-3.898 4.312-3.898 6.888-3.898 2.576 0 6.888 0 6.888 3.898 0 2.315-2.397 5.22-4.857 6.38V58.56c3.973-.112 9.026-.638 13.341-2.736 2.766-1.345 4.932-3.205 6.438-5.53 1.712-2.644 2.58-5.906 2.58-9.695 0-2.784-.324-5.03-.854-7.122 2.216-.243 4.991-1.137 6.792-4.339 1.527-2.716.93-6.388-1.772-10.914ZM42.557 29.71a2.503 2.503 0 0 1-2.492-2.511 2.502 2.502 0 0 1 2.492-2.511 2.503 2.503 0 0 1 2.493 2.51 2.503 2.503 0 0 1-2.493 2.512Zm12.619.02a2.521 2.521 0 0 1-2.512-2.531 2.521 2.521 0 0 1 2.512-2.53 2.521 2.521 0 0 1 2.51 2.53 2.521 2.521 0 0 1-2.51 2.53ZM30.313 61.386c5.69 0 10.3 4.157 10.3 9.286 0 2.814-1.39 4.4-3.583 5.263V74.05c0-.38-.401-.69-.896-.69-.494 0-.895.31-.895.69v2.406c-1.09.225-2.3.339-3.583.383v-2.79c0-.38-.402-.689-.897-.689-.494 0-.895.31-.895.69v2.806c-1.267-.013-2.475-.08-3.583-.244V74.05c0-.38-.401-.69-.896-.69-.494 0-.895.31-.895.69v2.186c-2.705-.769-4.479-2.384-4.479-5.564 0-5.129 4.613-9.286 10.302-9.286Zm37.623 0c5.689 0 10.3 4.157 10.3 9.286 0 2.814-1.39 4.4-3.584 5.263V74.05c0-.38-.4-.69-.895-.69s-.895.31-.896.69v2.406c-1.09.225-2.3.339-3.583.383v-2.79c0-.38-.402-.689-.896-.689s-.895.31-.896.69v2.806c-1.267-.013-2.475-.08-3.583-.244V74.05c0-.38-.4-.69-.895-.69s-.895.31-.896.69v2.186c-2.704-.769-4.478-2.384-4.478-5.564 0-5.129 4.612-9.286 10.302-9.286Z" fill="#0067B6"/><path d="M65.907 56.231a1.797 1.797 0 0 1 2.271 1.109 1.764 1.764 0 0 1-1.123 2.242c-6.392 2.136-11.638 3.252-17.192 3.366-5.535.114-11.275-.77-18.644-2.502a1.768 1.768 0 0 1-1.327-2.13 1.793 1.793 0 0 1 2.158-1.31c7.248 1.703 12.647 2.51 17.739 2.405 5.073-.104 9.942-1.117 16.118-3.18ZM10.648 43.914c.309-.94-.576-1.785-1.975-1.887-1.4-.101-3.969 1.394-5.226 3.857-.693 1.663-2.553 4.224-1.844 9.432.708 5.19 4.567 10.798 10.563 14.258.482.85 1.531.533 3.317.79 1.35-.413 3.168.538 2.686-.313-3.63-6.406-6.774-13.252-7.424-18.026-.649-4.758-.097-8.111-.097-8.111Z" fill="#0067B6"/></svg>