<svg width="86" height="112" fill="none" xmlns="http://www.w3.org/2000/svg"><mask id="a" maskUnits="userSpaceOnUse" x="16.8" y="-1" width="53" height="84" fill="#000"><path fill="#fff" d="M16.8-1h53v84h-53z"/><path d="M36.7 67.691c2.425-.974 5.005-.24 5.763 1.646l.004.009c.18.45.59.77 1.06.747 1.731-.083 3.353.83 3.986 2.404.82 2.037-.32 4.418-2.548 5.314a4.575 4.575 0 0 1-2.761.221 2.124 2.124 0 0 0-2.31.927 4.587 4.587 0 0 1-2.148 1.754c-2.229.896-4.698-.034-5.517-2.071-.63-1.568-.1-3.34 1.194-4.479.354-.312.448-.838.266-1.289l-.003-.009c-.758-1.885.596-4.201 3.015-5.174Zm-10.872 1.346c.988-.962 3.257-.235 4.22.754a2.498 2.498 0 1 1-3.582 3.485c-.962-.988-1.627-3.276-.638-4.239Zm19.658-7.903c1.38.01 2.482 2.122 2.472 3.502a2.499 2.499 0 1 1-4.997-.037c.01-1.38 1.145-3.476 2.525-3.465Zm-16.656-.416c1.369-.858 3.786.533 4.644 1.902a2.925 2.925 0 0 1-4.957 3.108c-.858-1.37-1.056-4.152.313-5.01Zm8.73-3.51c1.582-.328 3.365 1.818 3.693 3.4a2.925 2.925 0 0 1-5.728 1.188c-.328-1.582.453-4.26 2.035-4.588Zm18.814-12.023c2.605-.124 4.8 1.418 4.897 3.448v.009c.022.485.327.925.78 1.061 1.65.497 2.87 1.887 2.95 3.574.103 2.194-1.754 4.067-4.153 4.181a4.586 4.586 0 0 1-2.682-.7 2.124 2.124 0 0 0-2.487.12 4.577 4.577 0 0 1-2.603.948c-2.4.114-4.426-1.575-4.53-3.768-.08-1.696 1.015-3.201 2.623-3.847.437-.176.676-.637.652-1.121v-.009c-.096-2.03 1.943-3.773 4.553-3.896Zm-10.717-2.303c1.25-.584 3.154.85 3.738 2.1a2.498 2.498 0 0 1-4.527 2.114c-.584-1.25-.461-3.63.789-4.214Zm17.64 1.44c.464-1.3 2.223-2.906 3.523-2.443 1.3.463 1.648 2.82 1.184 4.12a2.498 2.498 0 0 1-4.707-1.677ZM29.163 33.14c2.424-.975 5.004-.241 5.762 1.644l.003.009c.18.45.59.77 1.06.747 1.732-.083 3.353.83 3.986 2.405.82 2.038-.32 4.417-2.548 5.313a4.574 4.574 0 0 1-2.76.221 2.124 2.124 0 0 0-2.311.927 4.588 4.588 0 0 1-2.148 1.754c-2.229.896-4.697-.034-5.516-2.071-.63-1.567-.1-3.339 1.193-4.478.355-.312.449-.84.267-1.29l-.004-.008c-.758-1.885.596-4.2 3.016-5.173Zm22.063 2.872c1.575-.36 3.401 1.748 3.762 3.323a2.925 2.925 0 1 1-5.703 1.306c-.36-1.575.367-4.269 1.941-4.63Zm9.4-.446c1.602.21 2.58 2.822 2.37 4.424a2.925 2.925 0 0 1-5.801-.76c.21-1.601 1.829-3.873 3.43-3.664Zm-42.337-1.082c.988-.962 3.258-.234 4.22.754a2.5 2.5 0 0 1-3.58 3.486c-.963-.99-1.63-3.277-.64-4.24Zm19.658-7.902c1.38.01 2.483 2.122 2.472 3.502a2.498 2.498 0 0 1-4.997-.037c.01-1.38 1.145-3.475 2.525-3.465Zm-16.657-.417c1.37-.858 3.788.534 4.646 1.902a2.926 2.926 0 0 1-4.958 3.108c-.858-1.37-1.056-4.152.313-5.01Zm8.732-3.51c1.582-.328 3.364 1.818 3.692 3.4a2.925 2.925 0 1 1-5.728 1.188c-.328-1.582.454-4.26 2.036-4.588Zm18.814-12.022c2.605-.123 4.8 1.418 4.896 3.447v.01c.023.485.327.924.78 1.06 1.65.497 2.87 1.887 2.95 3.575.104 2.193-1.753 4.066-4.152 4.18a4.587 4.587 0 0 1-2.684-.699 2.124 2.124 0 0 0-2.486.12 4.574 4.574 0 0 1-2.602.947c-2.4.114-4.426-1.575-4.53-3.768-.08-1.696 1.014-3.201 2.622-3.847.438-.175.677-.636.653-1.12l-.001-.01c-.096-2.03 1.944-3.771 4.554-3.895ZM38.12 8.33c1.25-.584 3.153.849 3.737 2.099a2.499 2.499 0 0 1-4.526 2.115c-.584-1.25-.461-3.63.789-4.214Zm17.64 1.44c.463-1.3 2.223-2.907 3.523-2.444 1.3.463 1.647 2.82 1.184 4.12A2.499 2.499 0 0 1 55.76 9.77ZM43.688 1.459c1.575-.36 3.401 1.75 3.762 3.324a2.926 2.926 0 0 1-5.703 1.305c-.36-1.575.366-4.269 1.941-4.629Zm9.4-.445c1.601.21 2.58 2.822 2.37 4.423a2.927 2.927 0 0 1-5.801-.76c.21-1.601 1.829-3.873 3.43-3.663Z"/></mask><path d="M36.7 67.691c2.425-.974 5.005-.24 5.763 1.646l.004.009c.18.45.59.77 1.06.747 1.731-.083 3.353.83 3.986 2.404.82 2.037-.32 4.418-2.548 5.314a4.575 4.575 0 0 1-2.761.221 2.124 2.124 0 0 0-2.31.927 4.587 4.587 0 0 1-2.148 1.754c-2.229.896-4.698-.034-5.517-2.071-.63-1.568-.1-3.34 1.194-4.479.354-.312.448-.838.266-1.289l-.003-.009c-.758-1.885.596-4.201 3.015-5.174Zm-10.872 1.346c.988-.962 3.257-.235 4.22.754a2.498 2.498 0 1 1-3.582 3.485c-.962-.988-1.627-3.276-.638-4.239Zm19.658-7.903c1.38.01 2.482 2.122 2.472 3.502a2.499 2.499 0 1 1-4.997-.037c.01-1.38 1.145-3.476 2.525-3.465Zm-16.656-.416c1.369-.858 3.786.533 4.644 1.902a2.925 2.925 0 0 1-4.957 3.108c-.858-1.37-1.056-4.152.313-5.01Zm8.73-3.51c1.582-.328 3.365 1.818 3.693 3.4a2.925 2.925 0 0 1-5.728 1.188c-.328-1.582.453-4.26 2.035-4.588Zm18.814-12.023c2.605-.124 4.8 1.418 4.897 3.448v.009c.022.485.327.925.78 1.061 1.65.497 2.87 1.887 2.95 3.574.103 2.194-1.754 4.067-4.153 4.181a4.586 4.586 0 0 1-2.682-.7 2.124 2.124 0 0 0-2.487.12 4.577 4.577 0 0 1-2.603.948c-2.4.114-4.426-1.575-4.53-3.768-.08-1.696 1.015-3.201 2.623-3.847.437-.176.676-.637.652-1.121v-.009c-.096-2.03 1.943-3.773 4.553-3.896Zm-10.717-2.303c1.25-.584 3.154.85 3.738 2.1a2.498 2.498 0 0 1-4.527 2.114c-.584-1.25-.461-3.63.789-4.214Zm17.64 1.44c.464-1.3 2.223-2.906 3.523-2.443 1.3.463 1.648 2.82 1.184 4.12a2.498 2.498 0 0 1-4.707-1.677ZM29.163 33.14c2.424-.975 5.004-.241 5.762 1.644l.003.009c.18.45.59.77 1.06.747 1.732-.083 3.353.83 3.986 2.405.82 2.038-.32 4.417-2.548 5.313a4.574 4.574 0 0 1-2.76.221 2.124 2.124 0 0 0-2.311.927 4.588 4.588 0 0 1-2.148 1.754c-2.229.896-4.697-.034-5.516-2.071-.63-1.567-.1-3.339 1.193-4.478.355-.312.449-.84.267-1.29l-.004-.008c-.758-1.885.596-4.2 3.016-5.173Zm22.063 2.872c1.575-.36 3.401 1.748 3.762 3.323a2.925 2.925 0 1 1-5.703 1.306c-.36-1.575.367-4.269 1.941-4.63Zm9.4-.446c1.602.21 2.58 2.822 2.37 4.424a2.925 2.925 0 0 1-5.801-.76c.21-1.601 1.829-3.873 3.43-3.664Zm-42.337-1.082c.988-.962 3.258-.234 4.22.754a2.5 2.5 0 0 1-3.58 3.486c-.963-.99-1.63-3.277-.64-4.24Zm19.658-7.902c1.38.01 2.483 2.122 2.472 3.502a2.498 2.498 0 0 1-4.997-.037c.01-1.38 1.145-3.475 2.525-3.465Zm-16.657-.417c1.37-.858 3.788.534 4.646 1.902a2.926 2.926 0 0 1-4.958 3.108c-.858-1.37-1.056-4.152.313-5.01Zm8.732-3.51c1.582-.328 3.364 1.818 3.692 3.4a2.925 2.925 0 1 1-5.728 1.188c-.328-1.582.454-4.26 2.036-4.588Zm18.814-12.022c2.605-.123 4.8 1.418 4.896 3.447v.01c.023.485.327.924.78 1.06 1.65.497 2.87 1.887 2.95 3.575.104 2.193-1.753 4.066-4.152 4.18a4.587 4.587 0 0 1-2.684-.699 2.124 2.124 0 0 0-2.486.12 4.574 4.574 0 0 1-2.602.947c-2.4.114-4.426-1.575-4.53-3.768-.08-1.696 1.014-3.201 2.622-3.847.438-.175.677-.636.653-1.12l-.001-.01c-.096-2.03 1.944-3.771 4.554-3.895ZM38.12 8.33c1.25-.584 3.153.849 3.737 2.099a2.499 2.499 0 0 1-4.526 2.115c-.584-1.25-.461-3.63.789-4.214Zm17.64 1.44c.463-1.3 2.223-2.907 3.523-2.444 1.3.463 1.647 2.82 1.184 4.12A2.499 2.499 0 0 1 55.76 9.77ZM43.688 1.459c1.575-.36 3.401 1.75 3.762 3.324a2.926 2.926 0 0 1-5.703 1.305c-.36-1.575.366-4.269 1.941-4.629Zm9.4-.445c1.601.21 2.58 2.822 2.37 4.423a2.927 2.927 0 0 1-5.801-.76c.21-1.601 1.829-3.873 3.43-3.663Z" fill="#0067B6"/><path d="m36.7 67.691-.372-.927.373.927Zm5.763 1.646-.928.373.001.001.927-.374Zm.004.009.93-.37-.005-.01-.925.38Zm1.06.747.048.999-.048-1Zm3.986 2.404.928-.373-.928.373Zm-2.548 5.314.373.927-.373-.927Zm-2.761.221.23-.973-.23.973Zm-2.31.927-.84-.543.84.543Zm-2.148 1.754.373.928-.373-.928Zm-5.517-2.071-.928.373.928-.373Zm1.194-4.479.661.75-.66-.75Zm.266-1.289-.949.316.01.03.012.029.927-.375Zm-.003-.009.949-.316-.01-.029-.011-.028-.928.373Zm-7.858-3.828-.698-.717.698.717Zm4.22.754.716-.697-.717.697ZM30 73.323l.697.717-.697-.717Zm-3.534-.047-.716.698.716-.698Zm19.02-12.142.008-1-.008 1Zm2.472 3.502 1 .007-1-.007Zm-2.517 2.48.007-1-.007 1ZM42.96 64.6l-1-.008 1 .008Zm-14.13-3.882-.531-.848.53.848Zm4.644 1.902.848-.53v-.001l-.848.531Zm-.925 4.032.531.848-.53-.848Zm-4.032-.924-.847.53.847-.53Zm9.043-8.52.203.98-.203-.98Zm3.693 3.4.98-.204-.98.203Zm-2.27 3.457.204.98-.203-.98Zm-3.458-2.27.98-.202h-.001l-.98.203Zm20.85-16.61.047.998-.047-.998Zm4.896 3.448h1v-.024l-.001-.024-.999.048Zm0 .009h-1v.022l.001.023.999-.045Zm.78 1.061-.29.958h.001l.288-.958ZM65 53.277l-1 .048 1-.048Zm-4.153 4.181.047.999-.047-.999Zm-2.682-.7-.538.843.538-.843Zm-2.487.12-.615-.789.615.789Zm-2.603.948.047 1-.047-1Zm-4.53-3.768 1-.048-1 .048Zm2.623-3.847.373.928-.373-.928Zm.652-1.121.998-.05v-.02l-.998.07Zm0-.009-1 .047.002.012v.01l.998-.069Zm-6.164-6.2-.423-.905.423.906Zm3.738 2.1.906-.423-.906.423Zm-1.206 3.32.423.907-.423-.906Zm-3.321-1.205-.906.423.906-.423Zm18.43-2.774-.943-.335.942.335Zm3.522-2.443.335-.942-.335.942Zm1.184 4.12-.942-.336.942.336Zm-3.191 1.515-.336.942.336-.942ZM29.163 33.14l-.373-.928.373.928Zm5.762 1.644-.927.373v.002l.927-.375Zm.003.009.93-.37-.005-.01-.925.38Zm1.06.747-.047-.999.048.999Zm3.986 2.405-.928.373.928-.373Zm-2.548 5.313.373.928-.373-.928Zm-2.76.221.23-.972-.23.973Zm-2.311.927-.84-.543.84.543Zm-2.148 1.754.372.928-.373-.928Zm-5.517-2.07-.928.373.928-.373Zm1.193-4.478-.66-.75.66.75Zm.267-1.29.927-.374-.015-.037-.018-.036-.894.447Zm-.004-.008-.928.373.015.038.018.037.895-.448Zm25.08-2.301-.224-.975.223.975Zm3.76 3.323-.974.223.975-.223Zm-2.197 3.504.223.975-.223-.975Zm-3.505-2.198-.975.223.975-.223Zm11.34-5.075.13-.991-.13.991Zm2.372 4.424.991.13-.991-.13Zm-3.28 2.52-.13.992.13-.991Zm-2.522-3.28-.992-.13.992.13Zm-38.906-4.746-.698-.716.698.716Zm4.22.754.717-.697-.717.697Zm-.048 3.534.698.716-.698-.716Zm-3.533-.048-.716.697.716-.697Zm19.019-12.142.007-1-.007 1Zm2.472 3.502 1 .008-1-.008Zm-2.516 2.48-.008 1 .008-1Zm-2.48-2.517-1-.008 1 .008ZM21.29 26.165l-.53-.847.53.847Zm4.646 1.902.847-.53-.847.53Zm-.925 4.033.531.847-.53-.847Zm-4.033-.925-.847.53.847-.53Zm9.044-8.52-.203-.979.203.98Zm3.692 3.4.98-.203-.98.203Zm-2.27 3.459.204.979-.203-.98Zm-3.458-2.27-.98.202.98-.203Zm20.85-16.611-.047-1 .047 1Zm4.896 3.447-.999.047.001.027.003.026.995-.1Zm0 .01 1-.046-.001-.027-.003-.027-.995.1Zm.78 1.06-.29.958h.001l.288-.958Zm2.95 3.575 1-.048-1 .048Zm-4.152 4.18.047 1-.047-1Zm-2.684-.699-.537.843.538-.843Zm-2.486.12-.615-.79.615.79Zm-2.602.947-.048-.998.048.998Zm-4.53-3.768 1-.047-1 .047Zm2.622-3.847-.372-.928.372.928Zm.653-1.12-1 .036.001.014.999-.05Zm-.001-.01-1 .048.002.013v.013l.998-.074ZM38.119 8.33l-.423-.906.423.906Zm3.737 2.099.906-.424-.906.424ZM40.65 13.75l.423.906-.423-.906Zm-3.32-1.206-.906.423.906-.423ZM55.76 9.77l-.943-.336.942.336Zm3.522-2.444.335-.942-.335.942Zm1.184 4.12.942.336-.942-.336Zm-3.192 1.515-.336.942.336-.942ZM43.688 1.459l-.223-.975.223.975Zm3.762 3.324-.975.223.975-.223Zm-2.2 3.504.224.975-.223-.975Zm-3.503-2.2-.975.224.975-.223Zm11.34-5.073.13-.992-.13.992Zm2.371 4.423.992.13-.992-.13Zm-3.28 2.522-.13.992.13-.992Zm-2.521-3.281-.992-.13.992.13ZM36.7 67.69l.373.928c2.144-.862 3.992-.077 4.462 1.09l.927-.372.928-.373c-1.046-2.603-4.358-3.288-7.063-2.2l.373.927Zm5.762 1.646-.927.374.015.036.005.01a.054.054 0 0 1 .001.003l-.002-.006a.84.84 0 0 1-.013-.028l.925-.38.925-.38-.014-.033-.004-.008v-.003.002a.438.438 0 0 0 .017.038l-.928.375Zm.004.009-.929.37c.303.758 1.052 1.423 2.037 1.376l-.048-1-.048-.998.01.001s-.004 0-.014-.008a.257.257 0 0 1-.079-.112l-.929.37Zm1.06.747.048.999c1.366-.066 2.557.652 3.01 1.778l.928-.373.928-.373c-.814-2.023-2.866-3.13-4.962-3.03l.048.999Zm3.986 2.404-.928.373c.583 1.45-.199 3.291-1.993 4.013l.373.928.373.927c2.663-1.07 4.158-3.99 3.103-6.614l-.928.373Zm-2.548 5.314-.373-.928a3.577 3.577 0 0 1-2.158.176l-.23.973-.231.973a5.576 5.576 0 0 0 3.365-.267l-.373-.927Zm-2.761.221.23-.973a3.124 3.124 0 0 0-3.38 1.357l.84.543.839.543a1.125 1.125 0 0 1 1.24-.497l.23-.973Zm-2.31.927-.84-.543a3.587 3.587 0 0 1-1.681 1.37l.373.927.373.928a5.586 5.586 0 0 0 2.614-2.139l-.84-.543Zm-2.148 1.754-.373-.928c-1.795.721-3.633-.066-4.216-1.516l-.928.373-.928.373c1.055 2.624 4.155 3.696 6.818 2.626l-.373-.928Zm-5.517-2.071.928-.373c-.45-1.122-.093-2.457.927-3.355l-.66-.75-.661-.751c-1.566 1.38-2.27 3.588-1.462 5.603l.928-.373Zm1.194-4.479.661.75c.717-.631.85-1.627.532-2.413l-.927.374-.927.375a.233.233 0 0 1 .014.127.106.106 0 0 1-.01.032l-.003.004.66.751Zm.266-1.289.949-.316-.003-.009-.949.316-.949.317.003.008.949-.316Zm-.003-.009.928-.373c-.47-1.169.322-3.013 2.46-3.873l-.373-.928-.373-.927c-2.7 1.085-4.616 3.872-3.57 6.474l.928-.373Zm-7.858-3.828.697.717c.124-.121.498-.257 1.2-.097.659.15 1.282.5 1.606.832l.716-.698.717-.697c-.64-.657-1.63-1.166-2.594-1.386-.92-.21-2.175-.229-3.04.612l.698.717Zm4.22.754-.717.698c.577.592.564 1.54-.029 2.118l.698.716.697.717a3.498 3.498 0 0 0 .067-4.947l-.717.698ZM30 73.323l-.698-.716a1.499 1.499 0 0 1-2.12-.028l-.716.697-.716.698a3.499 3.499 0 0 0 4.947.066L30 73.323Zm-3.534-.047.717-.697c-.323-.332-.655-.965-.787-1.628-.141-.706.005-1.076.13-1.197l-.698-.717-.698-.717c-.864.842-.88 2.097-.695 3.023.193.969.675 1.974 1.315 2.63l.716-.697Zm19.02-12.142-.008 1c.173.001.535.167.921.774.363.57.562 1.257.559 1.72l1 .008 1 .007c.006-.916-.341-1.975-.872-2.809-.507-.796-1.386-1.69-2.592-1.7l-.008 1Zm2.472 3.502-1-.008a1.499 1.499 0 0 1-1.51 1.488l-.007 1-.008 1a3.499 3.499 0 0 0 3.525-3.473l-1-.007Zm-2.517 2.48.007-1a1.499 1.499 0 0 1-1.487-1.51l-1-.007-1-.008a3.499 3.499 0 0 0 3.473 3.525l.007-1ZM42.96 64.6l1 .007c.004-.463.213-1.147.585-1.711.395-.602.76-.763.932-.761l.008-1 .007-1c-1.206-.01-2.1.873-2.618 1.661-.543.826-.907 1.88-.913 2.796l1 .008Zm-14.13-3.882.53.847c.247-.155.78-.19 1.56.175.742.346 1.398.919 1.707 1.411l.847-.53.847-.532c-.549-.876-1.53-1.684-2.555-2.161-.984-.46-2.345-.76-3.467-.058l.53.848Zm4.644 1.902-.847.531c.564.901.292 2.09-.609 2.654l.531.847.531.848a3.926 3.926 0 0 0 1.242-5.41l-.848.53Zm-.925 4.032-.53-.847a1.925 1.925 0 0 1-2.655-.609l-.847.532-.847.53a3.925 3.925 0 0 0 5.41 1.242l-.53-.848Zm-4.032-.924.847-.531c-.308-.493-.538-1.333-.526-2.151.013-.863.276-1.326.523-1.48l-.531-.848-.531-.848c-1.123.704-1.445 2.06-1.46 3.146-.017 1.13.282 2.366.83 3.243l.848-.531Zm9.043-8.52.203.98c.285-.06.796.093 1.402.706.575.582.991 1.348 1.11 1.917l.978-.204.98-.203c-.21-1.013-.85-2.111-1.645-2.915-.763-.773-1.934-1.53-3.231-1.26l.203.979Zm3.693 3.4-.979.203a1.925 1.925 0 0 1-1.493 2.275l.203.98.203.978a3.925 3.925 0 0 0 3.046-4.64l-.98.203Zm-2.27 3.457-.202-.979a1.925 1.925 0 0 1-2.277-1.493l-.98.203-.978.203a3.925 3.925 0 0 0 4.641 3.046l-.203-.98Zm-3.458-2.27.979-.202c-.118-.57-.041-1.437.255-2.2.311-.803.72-1.147 1.004-1.206l-.203-.979-.203-.98c-1.297.27-2.07 1.43-2.463 2.442-.409 1.054-.558 2.316-.348 3.33l.979-.204Zm20.85-16.61.047.998c2.302-.109 3.79 1.239 3.85 2.497l.999-.047.999-.048c-.133-2.8-3.036-4.537-5.943-4.4l.047 1Zm4.896 3.448h-1v.009h2v-.01h-1Zm0 .009-.999.045c.039.849.576 1.698 1.49 1.974l.288-.958.289-.957h-.001l-.005-.004a.107.107 0 0 1-.023-.024.231.231 0 0 1-.04-.122l-.999.046Zm.78 1.061-.289.958c1.302.392 2.182 1.456 2.24 2.664l.999-.048.998-.047c-.102-2.168-1.661-3.883-3.66-4.484l-.289.957ZM65 53.277l-1 .048c.075 1.56-1.269 3.042-3.2 3.134l.047.999.047.999c2.867-.136 5.238-2.402 5.104-5.227l-.998.047Zm-4.153 4.181-.047-.999a3.585 3.585 0 0 1-2.098-.545l-.538.844-.537.843a5.58 5.58 0 0 0 3.267.856l-.047-.999Zm-2.682-.7.537-.844a3.124 3.124 0 0 0-3.639.175l.615.789.615.788a1.125 1.125 0 0 1 1.334-.065l.538-.843Zm-2.487.12-.615-.788c-.542.423-1.246.7-2.036.737l.048 1 .047.998a5.577 5.577 0 0 0 3.171-1.159l-.615-.788Zm-2.603.948-.048-.999c-1.931.092-3.409-1.256-3.483-2.817l-.999.048-.998.047c.133 2.825 2.709 4.856 5.575 4.72l-.047-.999Zm-4.53-3.768 1-.048c-.058-1.212.726-2.361 1.996-2.871l-.373-.928-.372-.928c-1.947.782-3.353 2.643-3.25 4.822l1-.047Zm2.623-3.847.373.928c.916-.368 1.319-1.285 1.277-2.1l-.998.05-.999.051a.259.259 0 0 1-.025.136c-.01.018-.012.012 0 .007l.372.928Zm.652-1.121.997-.07a1.016 1.016 0 0 1 .002.1v-.008a.716.716 0 0 0-.002-.1l-.997.07-.998.069a.993.993 0 0 1-.002-.1v.008a2.088 2.088 0 0 0 .002.101l.998-.07Zm0-.009.999-.047c-.06-1.258 1.293-2.741 3.602-2.85l-.047-1-.048-.998c-2.912.138-5.638 2.14-5.505 4.942l.999-.047Zm-6.164-6.2.423.907c.157-.073.554-.079 1.165.304.573.358 1.048.893 1.244 1.313l.906-.424.906-.423c-.388-.83-1.157-1.637-1.995-2.162-.8-.5-1.98-.93-3.072-.42l.423.906Zm3.738 2.1-.906.424c.35.75.026 1.64-.723 1.99l.423.907.423.906a3.498 3.498 0 0 0 1.69-4.65l-.907.423Zm-1.206 3.32-.423-.905c-.75.35-1.642.026-1.992-.724l-.906.424-.906.423a3.499 3.499 0 0 0 4.65 1.689l-.423-.906Zm-3.321-1.205.906-.423c-.196-.42-.302-1.128-.209-1.797.099-.713.358-1.015.515-1.088l-.423-.906-.423-.906c-1.094.51-1.52 1.691-1.65 2.626-.136.979-.01 2.087.378 2.917l.906-.423Zm18.43-2.774.941.336c.156-.437.578-1.014 1.114-1.425.572-.438.968-.47 1.132-.412l.335-.942.335-.942c-1.136-.405-2.27.135-3.019.71-.784.6-1.473 1.477-1.78 2.34l.941.335Zm3.522-2.443-.336.942c.164.058.45.334.616 1.035.156.657.118 1.37-.038 1.807l.942.336.942.336c.308-.864.328-1.978.1-2.94-.217-.919-.754-2.053-1.89-2.458l-.336.942Zm1.184 4.12-.942-.336a1.498 1.498 0 0 1-1.913.909l-.336.942-.336.942a3.498 3.498 0 0 0 4.47-2.121l-.943-.336Zm-3.191 1.515.336-.942a1.499 1.499 0 0 1-.91-1.914l-.942-.336-.942-.335a3.498 3.498 0 0 0 2.122 4.469l.336-.942ZM29.163 33.14l.373.928c2.144-.863 3.992-.079 4.462 1.09l.927-.374.928-.373c-1.046-2.603-4.359-3.286-7.063-2.2l.373.929Zm5.762 1.644-.927.375a1.005 1.005 0 0 1-.03-.085l.003.008a.689.689 0 0 0 .032.091l.925-.38.925-.38a.958.958 0 0 1 .032.09v-.001l-.002-.005a.62.62 0 0 0-.03-.087l-.928.374Zm.003.009-.929.37c.303.76 1.053 1.423 2.038 1.376l-.048-.999-.048-.999c.012 0 .012.006-.005-.007a.257.257 0 0 1-.079-.111l-.929.37Zm1.06.747.049.999c1.366-.066 2.556.653 3.01 1.78l.927-.374.928-.373c-.813-2.023-2.865-3.131-4.961-3.03l.048.998Zm3.986 2.405-.928.373c.583 1.45-.199 3.29-1.993 4.012l.373.928.373.928c2.663-1.07 4.158-3.99 3.103-6.614l-.928.373Zm-2.548 5.313-.373-.928a3.575 3.575 0 0 1-2.157.177l-.23.973-.231.973a5.575 5.575 0 0 0 3.364-.267l-.373-.928Zm-2.76.221.23-.972a3.124 3.124 0 0 0-3.38 1.356l.839.543.84.544a1.125 1.125 0 0 1 1.24-.498l.23-.972Zm-2.311.927-.84-.543a3.588 3.588 0 0 1-1.681 1.37l.372.927.374.928a5.588 5.588 0 0 0 2.615-2.139l-.84-.543Zm-2.148 1.754-.373-.928c-1.794.721-3.632-.066-4.215-1.516l-.928.373-.928.373c1.055 2.624 4.153 3.696 6.816 2.626l-.373-.928Zm-5.517-2.07.928-.373c-.45-1.121-.094-2.456.926-3.354l-.66-.75-.662-.751c-1.566 1.38-2.27 3.587-1.46 5.6l.928-.372Zm1.193-4.478.661.75c.716-.63.851-1.627.533-2.414l-.927.374-.927.375a.23.23 0 0 1 .014.128.11.11 0 0 1-.014.036l.66.751Zm.267-1.29.894-.447-.004-.008-.894.447-.894.448.003.008.895-.448Zm-.004-.008.928-.373c-.47-1.168.322-3.013 2.46-3.872l-.372-.928-.373-.928c-2.7 1.085-4.617 3.872-3.57 6.474l.927-.373Zm25.08-2.301.222.974c.284-.064.798.078 1.416.679.587.57 1.018 1.326 1.148 1.893l.975-.223.975-.223c-.231-1.008-.893-2.094-1.704-2.882-.778-.756-1.965-1.488-3.256-1.193l.223.975Zm3.76 3.323-.974.223a1.925 1.925 0 0 1-1.447 2.306l.224.975.223.975a3.925 3.925 0 0 0 2.95-4.702l-.975.223Zm-2.197 3.504-.224-.975a1.926 1.926 0 0 1-2.306-1.447l-.975.224-.975.223a3.926 3.926 0 0 0 4.703 2.95l-.223-.975Zm-3.505-2.198.975-.224c-.13-.566-.07-1.435.21-2.204.295-.81.696-1.162.98-1.227l-.224-.974-.223-.975c-1.291.296-2.04 1.471-2.413 2.492-.387 1.061-.51 2.326-.28 3.335l.975-.223Zm11.34-5.075-.13.992c.29.038.722.35 1.093 1.128.351.739.492 1.598.417 2.174l.992.13.991.13c.134-1.026-.109-2.273-.595-3.294-.467-.98-1.325-2.08-2.638-2.251l-.13.991Zm2.372 4.424-.992-.13a1.925 1.925 0 0 1-2.159 1.66l-.13.99-.13.992a3.925 3.925 0 0 0 4.402-3.382l-.991-.13Zm-3.28 2.52.13-.99a1.926 1.926 0 0 1-1.66-2.16l-.992-.13-.992-.13a3.926 3.926 0 0 0 3.383 4.402l.13-.991Zm-2.522-3.28.991.13c.076-.576.434-1.37.964-1.993.559-.657 1.057-.847 1.346-.81l.13-.99.13-.992c-1.314-.172-2.426.669-3.13 1.496-.732.861-1.288 2.004-1.423 3.03l.992.13Zm-38.906-4.746.697.717c.124-.12.498-.257 1.2-.096.66.15 1.284.499 1.607.83l.716-.697.717-.697c-.64-.657-1.631-1.166-2.595-1.386-.92-.21-2.175-.229-3.04.613l.698.716Zm4.22.754-.716.698a1.499 1.499 0 0 1-.03 2.119l.698.717.698.716a3.5 3.5 0 0 0 .067-4.947l-.717.697Zm-.048 3.534-.697-.717a1.499 1.499 0 0 1-2.12-.029l-.716.698-.716.697a3.499 3.499 0 0 0 4.947.067l-.698-.716Zm-3.533-.048.717-.698c-.323-.332-.655-.965-.788-1.628-.141-.706.005-1.076.13-1.197l-.698-.717-.698-.716c-.864.841-.88 2.097-.695 3.022.194.97.677 1.974 1.316 2.631l.716-.697Zm19.019-12.142-.008 1c.174.001.535.167.922.775.363.57.562 1.256.559 1.72l1 .007 1 .007c.006-.916-.341-1.975-.872-2.809-.507-.796-1.387-1.69-2.594-1.7l-.007 1Zm2.472 3.502-1-.008a1.498 1.498 0 0 1-1.509 1.488l-.007 1-.008 1a3.498 3.498 0 0 0 3.524-3.473l-1-.007Zm-2.516 2.48.007-1a1.499 1.499 0 0 1-1.488-1.51l-1-.007-1-.007a3.499 3.499 0 0 0 3.473 3.523l.008-1Zm-2.48-2.517 1 .007c.003-.463.212-1.146.583-1.711.396-.602.76-.762.933-.761l.008-1 .007-1c-1.206-.009-2.1.873-2.618 1.662-.544.825-.907 1.879-.914 2.795l1 .008ZM21.29 26.165l.532.847c.246-.154.779-.189 1.56.175.742.346 1.398.919 1.707 1.412l.847-.532.847-.53c-.55-.877-1.531-1.684-2.556-2.162-.984-.46-2.345-.76-3.468-.057l.532.847Zm4.646 1.902-.847.531c.564.901.292 2.09-.609 2.654l.531.848.532.847a3.926 3.926 0 0 0 1.24-5.41l-.847.53Zm-.925 4.033-.53-.848a1.927 1.927 0 0 1-2.656-.608l-.847.53-.847.532a3.926 3.926 0 0 0 5.411 1.24l-.53-.846Zm-4.033-.925.847-.531c-.308-.493-.538-1.333-.526-2.151.013-.862.276-1.326.523-1.48l-.531-.848-.532-.847c-1.122.703-1.444 2.06-1.46 3.146-.016 1.13.282 2.365.832 3.242l.847-.531Zm9.044-8.52.203.98c.285-.06.796.093 1.402.706.574.582.99 1.348 1.108 1.917l.98-.203.978-.204c-.21-1.012-.85-2.11-1.643-2.915-.763-.772-1.934-1.529-3.231-1.26l.203.98Zm3.692 3.4-.979.203a1.925 1.925 0 0 1-1.493 2.277l.203.979.203.979a3.925 3.925 0 0 0 3.046-4.641l-.98.203Zm-2.27 3.459-.202-.98a1.926 1.926 0 0 1-2.277-1.494l-.98.203-.978.203a3.926 3.926 0 0 0 4.64 3.047l-.202-.98Zm-3.458-2.27.979-.204c-.118-.57-.04-1.437.255-2.2.312-.803.72-1.146 1.005-1.206l-.203-.979-.203-.979c-1.297.27-2.07 1.429-2.464 2.441-.408 1.054-.558 2.316-.348 3.33l.979-.204Zm20.85-16.611.048.999c2.302-.11 3.79 1.238 3.85 2.495l.998-.047.999-.047c-.133-2.801-3.035-4.537-5.942-4.4l.047 1Zm4.896 3.447-.995.1v.01l.996-.1.995-.1-.001-.01-.995.1Zm0 .01-.998.046c.04.847.575 1.696 1.489 1.972l.288-.958.289-.957h-.001l-.005-.003a.114.114 0 0 1-.022-.024.232.232 0 0 1-.04-.122l-1 .046Zm.78 1.06-.289.958c1.302.392 2.183 1.457 2.24 2.664l1-.047.998-.048c-.103-2.168-1.663-3.883-3.662-4.484l-.288.957Zm2.95 3.575-.998.047c.074 1.561-1.27 3.043-3.201 3.134l.047 1 .047.998c2.867-.136 5.238-2.401 5.104-5.227l-.999.048Zm-4.152 4.18-.047-.999a3.588 3.588 0 0 1-2.1-.543l-.536.843-.538.843a5.586 5.586 0 0 0 3.268.855l-.047-.999Zm-2.684-.699.538-.843a3.123 3.123 0 0 0-3.639.174l.615.788.615.789a1.124 1.124 0 0 1 1.334-.065l.538-.843Zm-2.486.12-.615-.79a3.577 3.577 0 0 1-2.035.739l.048.998.047 1a5.574 5.574 0 0 0 3.17-1.16l-.615-.788Zm-2.602.947-.048-.998c-1.932.091-3.409-1.256-3.483-2.817l-.999.047-.999.047c.134 2.826 2.71 4.856 5.576 4.72l-.047-.999Zm-4.53-3.768 1-.047c-.058-1.213.725-2.362 1.995-2.872l-.373-.928-.372-.928c-1.948.782-3.352 2.644-3.249 4.822l1-.047Zm2.622-3.847.373.928c.915-.367 1.32-1.284 1.278-2.1l-.998.051-.999.05a.257.257 0 0 1-.025.135c-.01.019-.013.013-.001.008l.372.928Zm.653-1.12.999-.038a.981.981 0 0 0-.005-.073l-.004-.032v-.002.011a.45.45 0 0 1 .006.05l-.997.074-.997.074a.915.915 0 0 0 .007.067v.002l-.001-.01a.61.61 0 0 1-.008-.087l1-.037Zm-.001-.01.999-.047c-.06-1.257 1.294-2.74 3.603-2.85l-.048-.998-.047-1c-2.911.139-5.64 2.14-5.506 4.943l.999-.048ZM38.119 8.33l.423.906c.157-.073.554-.079 1.164.303.573.359 1.048.893 1.244 1.313l.906-.423.906-.424c-.388-.83-1.157-1.637-1.994-2.16-.8-.502-1.98-.931-3.072-.421l.423.906Zm3.737 2.099-.906.423a1.5 1.5 0 0 1-.723 1.992l.423.906.423.906a3.499 3.499 0 0 0 1.689-4.65l-.906.423ZM40.65 13.75l-.423-.906c-.75.35-1.641.026-1.991-.723l-.906.423-.906.423a3.498 3.498 0 0 0 4.649 1.69l-.423-.907Zm-3.32-1.206.906-.423c-.197-.42-.302-1.127-.21-1.797.1-.713.359-1.015.516-1.088l-.423-.906-.424-.906c-1.093.51-1.52 1.691-1.65 2.626-.135.98-.01 2.087.379 2.917l.906-.423ZM55.76 9.77l.941.335c.156-.436.578-1.013 1.114-1.425.572-.438.968-.47 1.131-.412l.336-.942.335-.942c-1.136-.405-2.27.135-3.019.71-.784.6-1.473 1.477-1.78 2.34l.941.336Zm3.522-2.444-.336.942c.163.058.45.334.616 1.035.156.657.118 1.371-.038 1.808l.942.335.942.336c.308-.863.328-1.978.1-2.94-.217-.918-.754-2.053-1.89-2.458l-.336.942Zm1.184 4.12-.942-.335a1.499 1.499 0 0 1-1.914.908l-.336.942-.336.942c1.82.648 3.822-.3 4.47-2.121l-.942-.336Zm-3.192 1.515.336-.942a1.498 1.498 0 0 1-.909-1.914l-.942-.335-.942-.336a3.498 3.498 0 0 0 2.121 4.469l.336-.942ZM43.688 1.459l.223.975c.284-.065.798.077 1.416.678.587.57 1.018 1.328 1.148 1.894l.975-.223.974-.223c-.23-1.008-.892-2.094-1.703-2.882-.778-.757-1.965-1.49-3.256-1.194l.223.975Zm3.762 3.324-.975.223a1.925 1.925 0 0 1-1.448 2.306l.224.975.223.975a3.926 3.926 0 0 0 2.95-4.702l-.974.223Zm-2.2 3.504-.222-.975a1.925 1.925 0 0 1-2.307-1.447l-.974.223-.975.223a3.925 3.925 0 0 0 4.702 2.95l-.223-.974Zm-3.503-2.2.974-.222c-.13-.567-.07-1.436.21-2.205.295-.81.696-1.161.98-1.226l-.223-.975-.223-.975c-1.291.296-2.041 1.471-2.413 2.492-.387 1.062-.51 2.327-.28 3.335l.975-.223Zm11.34-5.073-.13.991c.29.038.722.35 1.092 1.129.352.738.493 1.597.418 2.174l.992.13.991.13c.134-1.026-.11-2.274-.595-3.294-.467-.98-1.325-2.08-2.638-2.252l-.13.992Zm2.371 4.423-.991-.13a1.927 1.927 0 0 1-2.16 1.66l-.13.992-.13.992a3.927 3.927 0 0 0 4.403-3.384l-.992-.13Zm-3.28 2.522.13-.992a1.926 1.926 0 0 1-1.66-2.16l-.991-.13-.992-.13a3.926 3.926 0 0 0 3.382 4.404l.13-.992Zm-2.521-3.281.991.13c.076-.577.434-1.37.964-1.994.558-.657 1.057-.847 1.346-.809l.13-.991.13-.992c-1.314-.172-2.426.67-3.13 1.496-.732.861-1.288 2.004-1.423 3.03l.992.13Z" fill="#fff" mask="url(#a)"/><path d="m12.5 99 3.897 6.75H8.603L12.5 99Zm16.108.048h5.866v2.058h-5.866v-2.058Zm-6.062 6.524h12.922v2.058H22.546v-2.058Zm4.914-10.388h2.198v11.536H27.46V95.184Zm14.742 1.834c.457.056.961.098 1.512.126.55.019 1.106.023 1.666.014a42.664 42.664 0 0 0 2.996-.154v2.184c-.457.037-.947.07-1.47.098a44.647 44.647 0 0 1-3.206 0 56.804 56.804 0 0 1-1.484-.098l-.014-2.17Zm1.442 6.132c-.047.224-.084.42-.112.588a4.81 4.81 0 0 0-.028.532.69.69 0 0 0 .434.658c.15.065.331.117.546.154.215.028.467.042.756.042.625 0 1.209-.028 1.75-.084a21.1 21.1 0 0 0 1.778-.294l.042 2.296c-.457.084-.98.149-1.568.196-.579.047-1.283.07-2.114.07-1.223 0-2.142-.215-2.758-.644-.607-.429-.91-1.017-.91-1.764 0-.299.019-.602.056-.91.047-.308.112-.644.196-1.008l1.932.168Zm-3.304-6.986a7.192 7.192 0 0 0-.14.448 17.91 17.91 0 0 0-.252.98l-.126.672c-.056.299-.117.644-.182 1.036-.056.383-.112.779-.168 1.19a30 30 0 0 0-.14 1.162 9.405 9.405 0 0 0-.056.938v.154c0 .084.005.14.014.168l.182-.364c.065-.112.126-.224.182-.336.065-.121.126-.247.182-.378l1.022.812c-.14.42-.28.859-.42 1.316-.13.457-.247.887-.35 1.288-.103.401-.182.733-.238.994a7.992 7.992 0 0 0-.056.364 2.54 2.54 0 0 0-.028.308v.28c0 .121.005.238.014.35l-1.96.126c-.14-.467-.27-1.111-.392-1.932a20.048 20.048 0 0 1-.168-2.674c0-.532.019-1.069.056-1.61.047-.541.098-1.059.154-1.554a131 131 0 0 1 .182-1.358c.065-.401.117-.733.154-.994l.098-.756c.037-.29.06-.565.07-.826l2.366.196Zm12.642 6.65h10.094v1.736H52.982v-1.736Zm5.978 1.106a3.625 3.625 0 0 0 1.624 1.778c.756.411 1.787.667 3.094.77-.14.14-.29.317-.448.532a9.072 9.072 0 0 0-.434.672 8.05 8.05 0 0 0-.322.63c-1.008-.149-1.853-.392-2.534-.728a4.922 4.922 0 0 1-1.694-1.344c-.439-.56-.812-1.241-1.12-2.044l1.834-.266Zm-2.086-2.674h2.1c-.028.747-.08 1.437-.154 2.072a7.902 7.902 0 0 1-.392 1.722c-.187.513-.462.98-.826 1.4-.355.411-.83.775-1.428 1.092-.588.317-1.33.588-2.226.812a3.363 3.363 0 0 0-.266-.574 7.763 7.763 0 0 0-.406-.616 3.28 3.28 0 0 0-.42-.49c.952-.215 1.694-.476 2.226-.784.541-.308.933-.677 1.176-1.106.243-.429.397-.933.462-1.512.075-.588.126-1.26.154-2.016Zm-4.97-3.22h2.044v2.562a21.9 21.9 0 0 1-.084 1.834c-.047.663-.14 1.344-.28 2.044-.13.691-.322 1.358-.574 2.002a6.864 6.864 0 0 1-.994 1.75 4.276 4.276 0 0 0-.518-.392 12.08 12.08 0 0 0-.672-.406 4.355 4.355 0 0 0-.616-.294c.392-.467.7-.98.924-1.54a8.08 8.08 0 0 0 .504-1.722 12.92 12.92 0 0 0 .21-1.736c.037-.569.056-1.092.056-1.568v-2.534Zm.994 0h9.576v3.78h-9.576v-1.512h7.574v-.756h-7.574v-1.512Zm-1.806-2.296h11.984v1.82H51.092v-1.82Zm15.848.406c.215.028.448.051.7.07.252.01.495.014.728.014h.658c.29-.01.611-.014.966-.014a1605.149 1605.149 0 0 0 2.058-.056c.299-.019.532-.033.7-.042.336-.028.602-.056.798-.084a3.25 3.25 0 0 0 .448-.084l1.05 1.498c-.177.112-.36.224-.546.336-.177.103-.355.22-.532.35-.196.13-.415.29-.658.476-.243.177-.49.369-.742.574l-.742.574a31.23 31.23 0 0 1-.644.504c.187-.037.355-.061.504-.07.15-.009.308-.014.476-.014.803 0 1.526.159 2.17.476a3.944 3.944 0 0 1 1.554 1.302c.383.541.574 1.167.574 1.876 0 .728-.182 1.405-.546 2.03-.364.625-.929 1.125-1.694 1.498-.765.383-1.755.574-2.968.574a5.351 5.351 0 0 1-1.806-.294c-.55-.196-.99-.476-1.316-.84a1.953 1.953 0 0 1-.49-1.33c0-.411.112-.798.336-1.162.233-.364.555-.658.966-.882.41-.224.882-.336 1.414-.336.653 0 1.209.131 1.666.392.457.252.807.597 1.05 1.036.252.439.378.924.378 1.456l-1.988.238c0-.457-.103-.821-.308-1.092-.196-.28-.457-.42-.784-.42-.233 0-.415.061-.546.182a.505.505 0 0 0-.182.378c0 .215.107.392.322.532.215.14.5.21.854.21.784 0 1.428-.089 1.932-.266.504-.177.873-.429 1.106-.756.243-.336.364-.728.364-1.176 0-.401-.126-.747-.378-1.036-.243-.299-.574-.527-.994-.686a3.927 3.927 0 0 0-1.4-.238c-.513 0-.994.075-1.442.224-.439.14-.854.341-1.246.602-.392.252-.77.555-1.134.91-.355.345-.7.723-1.036 1.134l-1.54-1.596c.224-.177.485-.387.784-.63.299-.243.607-.495.924-.756a143.952 143.952 0 0 1 1.652-1.386l.658-.532c.252-.196.504-.397.756-.602.261-.215.509-.415.742-.602.233-.196.434-.369.602-.518-.14 0-.308.005-.504.014-.187.01-.387.019-.602.028-.215 0-.434.005-.658.014-.215.01-.42.023-.616.042l-.518.028c-.205.01-.425.028-.658.056a7.254 7.254 0 0 0-.602.07l-.07-2.198Z" fill="#333"/></svg>