<svg id="グループ_1501" data-name="グループ 1501" xmlns="http://www.w3.org/2000/svg" width="140" height="51.814" viewBox="0 0 140 51.814">
  <g id="グループ_1490" data-name="グループ 1490" transform="translate(14.221)">
    <path id="パス_2260" data-name="パス 2260" d="M338.365,825.8h4.9l5.342,13.707h-5.013l-.717-2.013h-4.355l-.679,2.013h-4.879Zm2.379,4.782-1.122,3.388h2.228Z" transform="translate(-332.962 -824.098)" fill="#0068b7"/>
    <path id="パス_2261" data-name="パス 2261" d="M400.141,838.172H404.5v1.122h.038a3.259,3.259,0,0,1,1.148-.978,3.6,3.6,0,0,1,1.748-.416,3.653,3.653,0,0,1,1.767.387,3.166,3.166,0,0,1,1.119,1,3.84,3.84,0,0,1,.58,1.363,7.1,7.1,0,0,1,.163,1.51v6.195h-4.47v-5.421a1.809,1.809,0,0,0-.244-1.084.864.864,0,0,0-.725-.311.882.882,0,0,0-.727.359,1.659,1.659,0,0,0-.282,1.036v5.421h-4.47Z" transform="translate(-382.077 -832.943)" fill="#0068b7"/>
    <path id="パス_2262" data-name="パス 2262" d="M451.477,821.75a2.116,2.116,0,0,1,.185-.88,2.226,2.226,0,0,1,.5-.726,2.42,2.42,0,0,1,.747-.494,2.255,2.255,0,0,1,.908-.185,2.09,2.09,0,0,1,.873.185,2.506,2.506,0,0,1,.726.494,2.276,2.276,0,0,1,.5.726,2.133,2.133,0,0,1,.185.88,2.2,2.2,0,0,1-.687,1.617,2.514,2.514,0,0,1-.726.475,2.205,2.205,0,0,1-.873.173,2.382,2.382,0,0,1-.908-.173,2.431,2.431,0,0,1-.747-.475,2.13,2.13,0,0,1-.5-.715,2.172,2.172,0,0,1-.185-.9m.078,2.944h4.47v10.182h-4.47Z" transform="translate(-419.609 -819.466)" fill="#0068b7"/>
    <path id="パス_2263" data-name="パス 2263" d="M485.932,848.354v-5.343a2.46,2.46,0,0,0-.192-1.123.678.678,0,0,0-.641-.35.881.881,0,0,0-.628.311,1.572,1.572,0,0,0-.3,1.1v5.4H479.7V838.172h4.356v1.122h.039a3.265,3.265,0,0,1,.473-.494,4.113,4.113,0,0,1,.64-.446,3.537,3.537,0,0,1,1.771-.455,3.95,3.95,0,0,1,1.743.358,2.653,2.653,0,0,1,1.161,1.112,4.488,4.488,0,0,1,1.238-1.045,3.681,3.681,0,0,1,1.86-.425,3.26,3.26,0,0,1,2.914,1.49,4.126,4.126,0,0,1,.58,1.385,6.277,6.277,0,0,1,.166,1.383v6.195h-4.472v-5.421a2.094,2.094,0,0,0-.2-1.112.731.731,0,0,0-.631-.283.808.808,0,0,0-.66.359,1.744,1.744,0,0,0-.269,1.056v5.4Z" transform="translate(-440.243 -832.943)" fill="#0068b7"/>
    <path id="パス_2264" data-name="パス 2264" d="M557.548,841.573a.776.776,0,0,0-.318-.687,1.446,1.446,0,0,0-.843-.224,2.689,2.689,0,0,0-1.17.262,4.73,4.73,0,0,0-.978.609l-2.227-2.208a6.519,6.519,0,0,1,2.209-1.375,7.382,7.382,0,0,1,2.632-.482,6.114,6.114,0,0,1,2.4.406,3.69,3.69,0,0,1,1.5,1.123,4.291,4.291,0,0,1,.773,1.664,8.75,8.75,0,0,1,.224,2.013v5.363H557.7v-.813h-.039a2.125,2.125,0,0,1-1.1.832,4.188,4.188,0,0,1-1.394.251,4.636,4.636,0,0,1-1.23-.172,3.411,3.411,0,0,1-1.142-.562,2.994,2.994,0,0,1-.842-1.007,3.215,3.215,0,0,1-.329-1.529,2.628,2.628,0,0,1,.551-1.732,3.767,3.767,0,0,1,1.4-1.045,6.794,6.794,0,0,1,1.906-.514,16.221,16.221,0,0,1,2.062-.135Zm.039,2.246a4.852,4.852,0,0,0-1.586.212.792.792,0,0,0-.6.794.624.624,0,0,0,.095.358.829.829,0,0,0,.252.242,1.231,1.231,0,0,0,.338.146,1.329,1.329,0,0,0,.341.047,1.35,1.35,0,0,0,1.025-.405,1.458,1.458,0,0,0,.387-1.045v-.349Z" transform="translate(-492.829 -832.629)" fill="#0068b7"/>
    <path id="パス_2265" data-name="パス 2265" d="M656.055,821.75a2.132,2.132,0,0,1,.185-.88,2.313,2.313,0,0,1,.5-.726,2.444,2.444,0,0,1,.747-.494,2.272,2.272,0,0,1,.91-.185,2.1,2.1,0,0,1,.872.185,2.511,2.511,0,0,1,.724.494,2.286,2.286,0,0,1,.5.726,2.131,2.131,0,0,1,.184.88,2.19,2.19,0,0,1-.688,1.617,2.52,2.52,0,0,1-.724.475,2.212,2.212,0,0,1-.872.173,2.4,2.4,0,0,1-.91-.173,2.455,2.455,0,0,1-.747-.475,2.211,2.211,0,0,1-.5-.715,2.188,2.188,0,0,1-.185-.9m.079,2.944h4.472v10.182h-4.472Z" transform="translate(-569.178 -819.466)" fill="#0068b7"/>
    <path id="パス_2266" data-name="パス 2266" d="M684,838.172h4.357v1.122h.038a3.268,3.268,0,0,1,1.15-.978,3.582,3.582,0,0,1,1.746-.416,3.642,3.642,0,0,1,1.766.387,3.166,3.166,0,0,1,1.121,1,3.817,3.817,0,0,1,.579,1.363,7.168,7.168,0,0,1,.165,1.51v6.195h-4.474v-5.421a1.83,1.83,0,0,0-.239-1.084.957.957,0,0,0-1.454.048,1.64,1.64,0,0,0-.279,1.036v5.421H684Z" transform="translate(-589.606 -832.943)" fill="#0068b7"/>
    <path id="パス_2267" data-name="パス 2267" d="M741.628,843.044c0,.168,0,.338-.009.514s-.014.319-.027.436h-6.855a.881.881,0,0,0,.183.484,1.607,1.607,0,0,0,.408.367,1.8,1.8,0,0,0,.542.233,2.4,2.4,0,0,0,.61.078,2.18,2.18,0,0,0,1.034-.223,1.985,1.985,0,0,0,.632-.494l3.172,1.606a4.655,4.655,0,0,1-1.963,1.743,6.641,6.641,0,0,1-2.99.64,6.8,6.8,0,0,1-2.15-.349,5.457,5.457,0,0,1-1.848-1.037,5.016,5.016,0,0,1-1.288-1.712,5.507,5.507,0,0,1-.485-2.382,5.606,5.606,0,0,1,.446-2.274,5.049,5.049,0,0,1,1.209-1.724,5.424,5.424,0,0,1,1.8-1.092,6.232,6.232,0,0,1,2.216-.388,5.607,5.607,0,0,1,2.19.415,4.951,4.951,0,0,1,1.692,1.163,5.212,5.212,0,0,1,1.094,1.771,6.244,6.244,0,0,1,.386,2.226m-3.85-1.453a1.134,1.134,0,0,0-.4-.89,1.577,1.577,0,0,0-1.075-.348,1.547,1.547,0,0,0-1.142.406,1.491,1.491,0,0,0-.465.832Z" transform="translate(-623.674 -832.629)" fill="#0068b7"/>
    <path id="パス_2268" data-name="パス 2268" d="M604.863,822.345V832.1a8.242,8.242,0,0,1-.2,1.87,3.882,3.882,0,0,1-.726,1.549,3.628,3.628,0,0,1-1.412,1.064,5.551,5.551,0,0,1-2.228.4V822.345Z" transform="translate(-528.41 -821.571)" fill="#0068b7"/>
    <path id="パス_2269" data-name="パス 2269" d="M628.312,822.345V832.1a8.3,8.3,0,0,0,.2,1.87,3.9,3.9,0,0,0,.726,1.549,3.668,3.668,0,0,0,1.414,1.064,5.526,5.526,0,0,0,2.226.4V822.345Z" transform="translate(-548.895 -821.571)" fill="#0068b7"/>
  </g>
  <g id="グループ_1491" data-name="グループ 1491" transform="translate(0 22.472)">
    <path id="パス_2270" data-name="パス 2270" d="M287.755,912.052h6.965l7.6,19.489h-7.13l-1.018-2.863h-6.194l-.964,2.863h-6.937Zm3.386,6.8-1.6,4.818h3.166Z" transform="translate(-280.075 -909.629)" fill="#f08300"/>
    <path id="パス_2271" data-name="パス 2271" d="M455.365,936.37a7.853,7.853,0,0,1-.674,3.331,7.323,7.323,0,0,1-1.816,2.464,7.882,7.882,0,0,1-2.643,1.527,9.66,9.66,0,0,1-6.277,0,7.724,7.724,0,0,1-2.629-1.527,7.417,7.417,0,0,1-1.8-2.464,7.857,7.857,0,0,1-.675-3.331,7.7,7.7,0,0,1,.675-3.29,7.31,7.31,0,0,1,1.8-2.436,7.672,7.672,0,0,1,2.629-1.5,9.9,9.9,0,0,1,6.277,0,7.829,7.829,0,0,1,2.643,1.5,7.219,7.219,0,0,1,1.816,2.436,7.694,7.694,0,0,1,.674,3.29M447.08,934a2.173,2.173,0,0,0-1.693.716,2.425,2.425,0,0,0-.646,1.678,2.463,2.463,0,0,0,.66,1.734,2.391,2.391,0,0,0,3.414,0,2.459,2.459,0,0,0,.661-1.734,2.368,2.368,0,0,0-.674-1.678,2.257,2.257,0,0,0-1.72-.716" transform="translate(-396.156 -921.752)" fill="#f08300"/>
    <path id="パス_2272" data-name="パス 2272" d="M588.864,936.716a6.348,6.348,0,0,1-4.321-1.251,4.96,4.96,0,0,1-1.4-3.9v-5.175H581.1v-4.542h2.009V918.6h6.167v3.249h3.137v4.542h-3.137v3.854a1.773,1.773,0,0,0,.454,1.418,1.921,1.921,0,0,0,1.252.372,3.746,3.746,0,0,0,.633-.056,4.657,4.657,0,0,0,.523-.111v4.349a5.66,5.66,0,0,1-1.39.358,12.463,12.463,0,0,1-1.887.138" transform="translate(-500.159 -914.418)" fill="#f08300"/>
    <path id="パス_2273" data-name="パス 2273" d="M637.238,906.289a3.051,3.051,0,0,1,.262-1.252,3.252,3.252,0,0,1,.715-1.033,3.513,3.513,0,0,1,1.06-.7,3.234,3.234,0,0,1,1.294-.263,2.967,2.967,0,0,1,1.238.263,3.631,3.631,0,0,1,1.033.7,3.272,3.272,0,0,1,.716,1.033,3.062,3.062,0,0,1,.261,1.252,3.119,3.119,0,0,1-.977,2.3,3.537,3.537,0,0,1-1.033.674,3.11,3.11,0,0,1-1.238.247,3.392,3.392,0,0,1-1.294-.247,3.432,3.432,0,0,1-1.06-.674,3.13,3.13,0,0,1-.977-2.3m.11,4.184h6.359v14.479h-6.359Z" transform="translate(-541.2 -903.04)" fill="#f08300"/>
    <path id="パス_2274" data-name="パス 2274" d="M687.951,936.37a7.87,7.87,0,0,1-.674,3.331,7.342,7.342,0,0,1-1.817,2.464,7.872,7.872,0,0,1-2.643,1.527,9.66,9.66,0,0,1-6.277,0,7.724,7.724,0,0,1-2.629-1.527,7.416,7.416,0,0,1-1.8-2.464,7.857,7.857,0,0,1-.674-3.331,7.7,7.7,0,0,1,.674-3.29,7.309,7.309,0,0,1,1.8-2.436,7.672,7.672,0,0,1,2.629-1.5,9.9,9.9,0,0,1,6.277,0,7.818,7.818,0,0,1,2.643,1.5,7.238,7.238,0,0,1,1.817,2.436,7.711,7.711,0,0,1,.674,3.29M679.664,934a2.174,2.174,0,0,0-1.693.716,2.425,2.425,0,0,0-.646,1.678,2.463,2.463,0,0,0,.66,1.734,2.391,2.391,0,0,0,3.414,0,2.459,2.459,0,0,0,.661-1.734,2.368,2.368,0,0,0-.674-1.678,2.258,2.258,0,0,0-1.72-.716" transform="translate(-566.201 -921.752)" fill="#f08300"/>
    <path id="パス_2275" data-name="パス 2275" d="M743,929.637h6.194v1.6h.055a4.6,4.6,0,0,1,1.632-1.39,5.112,5.112,0,0,1,2.485-.592,5.169,5.169,0,0,1,2.51.55,4.518,4.518,0,0,1,1.592,1.418,5.5,5.5,0,0,1,.823,1.941,10.088,10.088,0,0,1,.233,2.147v8.808h-6.359v-7.707a2.578,2.578,0,0,0-.344-1.542,1.23,1.23,0,0,0-1.031-.44,1.253,1.253,0,0,0-1.032.51,2.342,2.342,0,0,0-.4,1.473v7.707H743Z" transform="translate(-618.521 -922.203)" fill="#f08300"/>
    <path id="パス_2276" data-name="パス 2276" d="M382.928,907.233a5.424,5.424,0,0,0-1.008-2.153,5.072,5.072,0,0,0-1.966-1.481,7.717,7.717,0,0,0-3.1-.55v8.587H376.8a4.059,4.059,0,0,0-1.68-1.143,5.843,5.843,0,0,0-2.092-.4,5.982,5.982,0,0,0-2.862.661,6.3,6.3,0,0,0-2.065,1.734,7.77,7.77,0,0,0-1.252,2.422,9.034,9.034,0,0,0-.428,2.753,9.38,9.38,0,0,0,.428,2.807,7.887,7.887,0,0,0,1.252,2.464,6.245,6.245,0,0,0,2.065,1.747,6,6,0,0,0,2.864.661,6.547,6.547,0,0,0,2.561-.509,4.211,4.211,0,0,0,1.844-1.389h.056v1.513h5.722V909.83a11.5,11.5,0,0,0-.282-2.6M376.48,919.4a2.36,2.36,0,0,1-1.8.715,2.2,2.2,0,0,1-1.763-.7,2.581,2.581,0,0,1-.605-1.748,2.521,2.521,0,0,1,.605-1.679,2.181,2.181,0,0,1,1.763-.715,2.376,2.376,0,0,1,2.478,2.395,2.441,2.441,0,0,1-.674,1.734" transform="translate(-343.201 -903.046)" fill="#f08300"/>
    <path id="パス_2277" data-name="パス 2277" d="M509.709,947.363a5.416,5.416,0,0,0,1.008,2.153A5.071,5.071,0,0,0,512.683,951a7.709,7.709,0,0,0,3.1.549V942.96h.057a4.042,4.042,0,0,0,1.678,1.142,5.837,5.837,0,0,0,2.092.4,6,6,0,0,0,2.863-.661,6.305,6.305,0,0,0,2.064-1.734,7.747,7.747,0,0,0,1.252-2.422,9.04,9.04,0,0,0,.427-2.753,9.387,9.387,0,0,0-.427-2.807,7.862,7.862,0,0,0-1.252-2.464,6.242,6.242,0,0,0-2.065-1.748,6,6,0,0,0-2.865-.661,6.554,6.554,0,0,0-2.561.509,4.217,4.217,0,0,0-1.844,1.39h-.055v-1.514h-5.723v15.127a11.5,11.5,0,0,0,.283,2.6m6.447-12.165a2.358,2.358,0,0,1,1.8-.716,2.2,2.2,0,0,1,1.761.7,2.581,2.581,0,0,1,.605,1.748,2.523,2.523,0,0,1-.605,1.68,2.179,2.179,0,0,1-1.761.715,2.376,2.376,0,0,1-2.478-2.395,2.435,2.435,0,0,1,.674-1.734" transform="translate(-447.756 -922.204)" fill="#f08300"/>
  </g>
</svg>
