<svg xmlns="http://www.w3.org/2000/svg" width="114.267" height="74.478" viewBox="0 0 114.267 74.478">
  <path id="パス_2284" data-name="パス 2284" d="M269.176,1842.727c-7.278,4.426-24.968.779-30.992-.646a25.269,25.269,0,0,0-14.043-3.29H209.78a43.524,43.524,0,0,1-17.561-3.525c-5.4-2.382-8.011-7.3-11.4-11.744-1.986-2.6-3.933-5.37-7.364-6.013a8.413,8.413,0,0,0-6.307,1.363,5.408,5.408,0,0,0-.881.756,12.163,12.163,0,0,0-.924,1.254,4.957,4.957,0,0,1-2.844,2.3c-.975.212-3.29.188-4.779.313a1.309,1.309,0,0,0-.443-.145,4.383,4.383,0,0,0-1.218.008,1.384,1.384,0,0,0-.6.2,1.827,1.827,0,0,0-.548,1.571,2.213,2.213,0,0,0,.392,1.445v.227c0,2.452.039,4.744,1.214,6.972a5,5,0,0,0,2.064,2.178,6.135,6.135,0,0,0,3.486.4,21.592,21.592,0,0,1,3.537-.341c2.28.106,3.96,1.88,4.889,3.847l6.53,13.769a32.629,32.629,0,0,0,3.471,5.551c5.856,26.2-4.94,28.4-4.94,28.4a3.918,3.918,0,0,0-2.374,4.274h7.6c5.128-3.988,7.525-9.6,8.555-14.893,1.8,9.464-2.417,10.619-2.417,10.619a3.918,3.918,0,0,0-2.374,4.274h7.6c6.5-6.244,5.041-17.11,3.189-24.028,11.136,1.469,21.811-4.936,21.811-4.936.1-.063.2-.125.3-.184,6.264,11.516,18.6,15.14,18.6,15.14,6.291,3.917,5.934,9.734,5.934,9.734a5.54,5.54,0,0,0-3.243,4.274h9.417a25.993,25.993,0,0,0-3.016-14.858,22.847,22.847,0,0,0,2.276.85c6.287,3.917,5.934,9.734,5.934,9.734a5.539,5.539,0,0,0-3.247,4.274h9.417a25.8,25.8,0,0,0-4.99-17.925c-7.145-1.379-7.47-7-7.47-7,.917-7.9-.161-13.593-2.268-17.694C265.584,1852.621,269.09,1842.985,269.176,1842.727Z" transform="translate(-154.909 -1817.369)" fill="#f08300"/>
</svg>
