<svg xmlns="http://www.w3.org/2000/svg" width="36" height="36" viewBox="0 0 36 36">
  <path id="icon_search-dark" d="M56,53.08a2.808,2.808,0,0,1-2.769,2.769,2.572,2.572,0,0,1-1.947-.822l-7.421-7.4A15.209,15.209,0,0,1,29.314,49.11,14.914,14.914,0,0,1,21.2,41a15.181,15.181,0,0,1,0-11.834,14.916,14.916,0,0,1,8.113-8.113,15.18,15.18,0,0,1,11.834,0,14.917,14.917,0,0,1,8.113,8.113,15.21,15.21,0,0,1-1.482,14.549L55.2,51.133A2.651,2.651,0,0,1,56,53.08ZM42.078,41.927a9.663,9.663,0,0,0,0-13.695,9.663,9.663,0,0,0-13.695,0,9.663,9.663,0,0,0,0,13.695,9.663,9.663,0,0,0,13.695,0Z" transform="translate(-20 -19.849)" fill="#fff" fill-rule="evenodd"/>
</svg>
