<svg xmlns="http://www.w3.org/2000/svg" width="195" height="195" viewBox="0 0 195 195">
  <g id="グループ_1760" data-name="グループ 1760" transform="translate(-383 -3269)">
    <rect id="長方形_1314" data-name="長方形 1314" width="195" height="195" rx="7" transform="translate(383 3269)" fill="#fff"/>
    <text id="超小型犬" transform="translate(481 3432)" fill="#424242" font-size="18" font-family="HiraginoSans-W6, Hiragino Sans"><tspan x="-36" y="0">超小型犬</tspan></text>
    <path id="パス_2283" data-name="パス 2283" d="M862.835,1928.944c-1.213-4.107-3.547-4.293-3.547-4.293,4.581,7.831-.6,11.745-2.966,13.037-4.153-4.958-13.217-5.319-13.217-5.319l-1.894-.06-8.41-.267c-1-.032-2.011-.062-3.016-.1a10.4,10.4,0,0,1-7.638-3.711,9.411,9.411,0,0,1-1.912-3.889,22.615,22.615,0,0,1-.266-2.617c1.16-.865,1.3-3.412,1.479-5.029a34.444,34.444,0,0,0,.032-7.632s-.245-2.273-1.438-.831a48.373,48.373,0,0,0-5.33,8.486c-.137-.031-.274-.059-.413-.083a9.887,9.887,0,0,0-5.244.274,2.141,2.141,0,0,0-1.034.861c-.345.6-.194,1.371-.653,1.907-.525.614-1.808.369-2.516.372-.08,0-.164,0-.252-.01a.968.968,0,0,0-.2-.081,2.918,2.918,0,0,0-.8-.091.91.91,0,0,0-.409.084,1.2,1.2,0,0,0-.485.983,1.229,1.229,0,0,0,.266,1.112l.01.007a4.614,4.614,0,0,0,.319,2.148,5.056,5.056,0,0,0,1.109,1.806c.545.557,2.024.846,2.735,1.12a9.027,9.027,0,0,1,3.477,3.068,17.673,17.673,0,0,1,2.415,6.678c.363,1.729.6,3.467,1.1,5.179a12.536,12.536,0,0,0,3.8,6.161c.875,8.946-3.216,12.561-3.216,12.561s-2.188.288-2.493,2.122h4.645c2.012-2.226,4.26-6.438,5.948-9.952a11.2,11.2,0,0,1-2.119,7.83s-2.187.288-2.493,2.122h4.646c2.55-2.821,4.3-8.83,5.183-12.567,1.691-.375,3.384-.905,4.9-1.194,0,0,3.258-.621,6.565-1.163.113,2.11,1.058,7.866,7.911,9.124,0,0,3.4.773,2.862,3.558a3.249,3.249,0,0,0-1.779,2.243h4.95a9.954,9.954,0,0,0-1.248-6.055c.35.1.717.183,1.1.254,0,0,3.4.773,2.862,3.558a3.249,3.249,0,0,0-1.779,2.243h4.95s.774-5.1-3.094-8.121c0,0-1.779-1.7,1.211-5.736,0,0,2.867-3.047.365-8.851C865.039,1937.083,862.835,1928.944,862.835,1928.944Z" transform="translate(-354.209 1419.889)" fill="#f08300"/>
  </g>
</svg>
