<svg xmlns="http://www.w3.org/2000/svg" width="195" height="195" viewBox="0 0 195 195">
  <g id="グループ_1762" data-name="グループ 1762" transform="translate(-853 -3269)">
    <rect id="長方形_1315" data-name="長方形 1315" width="195" height="195" rx="7" transform="translate(853 3269)" fill="#fff"/>
    <text id="中型犬" transform="translate(950 3432)" fill="#424242" font-size="18" font-family="HiraginoSans-W6, Hiragino Sans"><tspan x="-27" y="0">中型犬</tspan></text>
    <path id="パス_2281" data-name="パス 2281" d="M487.3,1876.107c-7.163-2.3-4.6-10.038-4.6-10.038q.383-1.506.595-2.875c7.932,11.071,12.615,13.593,12.615,13.593-.812-14.08-9.955-22.445-15.092-26.066-5.245-6.795-16.1-6.54-16.1-6.54l-18.15-1.067c-3.651-.553-7.42-1.435-10.253-3.8-2.272-1.9-3.723-4.57-5.414-7s-3.855-4.788-6.734-5.481c-.24-.058-.485-.106-.732-.145a31.421,31.421,0,0,0-.281-4.08s-.253-1.888-1.094-.643a17.773,17.773,0,0,0-2.536,4.867,9.865,9.865,0,0,0-4.2,2.009c-1.317,1.108-1.916,2.62-3,3.906a4.079,4.079,0,0,1-2.575,1.188,9.69,9.69,0,0,0-2.269.447,3.328,3.328,0,0,0-.743.021.979.979,0,0,0-.426.143,1.3,1.3,0,0,0-.39,1.114,2.139,2.139,0,0,0,.1.718,9.221,9.221,0,0,0,.406,2.994,4.748,4.748,0,0,0,1.863,2.753,6.266,6.266,0,0,0,2.862.809,35.006,35.006,0,0,1,4.058.429c3.785.814,5.852,4.634,6.549,8.185,1.287,6.551,3.685,10.929,6.61,13.788,1.556,19.942-5.58,23.473-5.58,23.473-3.2,1.292-3.633,3.206-3.633,3.206h6.031c4.524-3.638,7.044-8.866,8.43-13.947,1.085,9.033-2.844,10.741-2.844,10.741-2.937,1.292-2.987,3.206-2.987,3.206h6.031c5.877-5.643,5.919-15.106,4.965-21.92a31.391,31.391,0,0,0,14.784-2.493,24.849,24.849,0,0,1,3.524-1.449c5.818,13.426,17.575,13.021,17.575,13.021,5.158,3.207,4.182,9.48,4.182,9.48-2.231,1.394-1.812,3.206-1.812,3.206h6.413c.661-6.317-.574-10.351-1.891-12.753a10.429,10.429,0,0,0,1.284.067c5.158,3.207,4.182,9.48,4.182,9.48-2.23,1.394-1.812,3.206-1.812,3.206h6.413C492.886,1878.947,487.3,1876.107,487.3,1876.107Z" transform="translate(499.09 1497.386)" fill="#f08300"/>
  </g>
</svg>
