<svg xmlns="http://www.w3.org/2000/svg" width="195" height="195" viewBox="0 0 195 195">
  <g id="グループ_1761" data-name="グループ 1761" transform="translate(-618 -3269)">
    <rect id="長方形_1316" data-name="長方形 1316" width="195" height="195" rx="7" transform="translate(618 3269)" fill="#fff"/>
    <text id="小型犬" transform="translate(716 3432)" fill="#424242" font-size="18" font-family="HiraginoSans-W6, Hiragino Sans"><tspan x="-27" y="0">小型犬</tspan></text>
    <path id="パス_2282" data-name="パス 2282" d="M689.143,1894.174a1.473,1.473,0,0,0-2.092.207c-.475.571-.664,1.213-1.208,1.766a10.793,10.793,0,0,1-5.018,2.408,11.949,11.949,0,0,1-4.79.171c-4.311-5.629-15.269-5.655-15.269-5.655l-2.188-.066q-4.851-.158-9.707-.312c-1.16-.035-2.324-.07-3.484-.11a12.005,12.005,0,0,1-8.819-4.284,10.9,10.9,0,0,1-2.206-4.491,22.131,22.131,0,0,1-.291-2.856c-.005-.058-.008-.117-.008-.176v-.72a6.566,6.566,0,0,0,.3-.611,1.937,1.937,0,0,0-.044-1.309,2.68,2.68,0,0,0-.65-.791q-.89-.837-1.775-1.674c-.338-.316-.844-1.006-1.318-1.129-.628-.167-.989.3-1.191.905a9.132,9.132,0,0,0-6.846.474c-1.327.694-2.118,1.867-3.282,2.76-.659.505-3.362.149-4.148.079-.36-.031-.778-.079-1.2-.088a1.3,1.3,0,0,0-.286-.123,4,4,0,0,0-1.094-.123,1.212,1.212,0,0,0-.558.114,1.647,1.647,0,0,0-.668,1.349,2.687,2.687,0,0,0,.031.971,9.512,9.512,0,0,0-.057,1.9,4.022,4.022,0,0,0,2.887,3.309c1.758.637,3.484,1.344,5.238,2.021a7.719,7.719,0,0,1,3.876,2.474,20.51,20.51,0,0,1,2.79,7.712,35.746,35.746,0,0,0,1.261,5.976,15.262,15.262,0,0,0,5.427,6.859c1.072,8.094-3.884,15.568-3.884,15.568s-2.527.329-2.883,2.447h5.365a12.883,12.883,0,0,0,1.028-1.3c2.346-3.335,4.306-8.63,5.5-12.343a20.922,20.922,0,0,1-2.434,11.2,3.9,3.9,0,0,0-2.483,1.437,2.537,2.537,0,0,0-.4,1.011h5.361c3.137-3.467,4.473-11.245,4.987-15.524,2.048-.233,4.012-.773,6.112-1.173,0,0,3.036-.576,6.424-1.147.22,2.636,1.762,9.241,11.666,10.524,0,0,3.7.927,2.061,5.528a2.646,2.646,0,0,0-2.21,2.311h6.288a10.548,10.548,0,0,0-.62-8.3,21.152,21.152,0,0,0,2.452.461s3.243.927,2.061,5.528a2.642,2.642,0,0,0-2.21,2.311h6.283s2.377-6.081-2.487-10.678a4.971,4.971,0,0,1-1.406-6.648,15.945,15.945,0,0,0,.4-9.724c1.037-.172,2.456-.492,2.663-.545a17.956,17.956,0,0,0,3.5-1.331,11.642,11.642,0,0,0,5.022-4.425C689.223,1895.694,689.693,1894.772,689.143,1894.174Z" transform="translate(65.604 1453.141)" fill="#f08300"/>
  </g>
</svg>
