<svg xmlns="http://www.w3.org/2000/svg" width="58" height="10" viewBox="0 0 58 10">
  <g id="グループ_1764" data-name="グループ 1764" transform="translate(-793 -1282)">
    <g id="グループ_1434" data-name="グループ 1434" transform="translate(-467.779 652.805)">
      <path id="パス_2148" data-name="パス 2148" d="M1266.991,633h3.788v.044l-3.063,2.318,1.2,3.823-.033.012-3.106-2.353-3.106,2.353-.032-.012,1.2-3.823-3.062-2.318V633h3.788l1.19-3.8h.043Z" transform="translate(0)" fill="#f08300"/>
    </g>
    <g id="グループ_1435" data-name="グループ 1435" transform="translate(-455.779 652.805)">
      <path id="パス_2148-2" data-name="パス 2148" d="M1266.991,633h3.788v.044l-3.063,2.318,1.2,3.823-.033.012-3.106-2.353-3.106,2.353-.032-.012,1.2-3.823-3.062-2.318V633h3.788l1.19-3.8h.043Z" transform="translate(0)" fill="#f08300"/>
    </g>
    <g id="グループ_1436" data-name="グループ 1436" transform="translate(-443.779 652.805)">
      <path id="パス_2148-3" data-name="パス 2148" d="M1266.991,633h3.788v.044l-3.063,2.318,1.2,3.823-.033.012-3.106-2.353-3.106,2.353-.032-.012,1.2-3.823-3.062-2.318V633h3.788l1.19-3.8h.043Z" transform="translate(0)" fill="#f08300"/>
    </g>
    <g id="グループ_1437" data-name="グループ 1437" transform="translate(-431.779 652.805)">
      <path id="パス_2148-4" data-name="パス 2148" d="M1266.991,633h3.788v.044l-3.063,2.318,1.2,3.823-.033.012-3.106-2.353-3.106,2.353-.032-.012,1.2-3.823-3.062-2.318V633h3.788l1.19-3.8h.043Z" transform="translate(0)" fill="#f08300"/>
    </g>
    <g id="グループ_1438" data-name="グループ 1438" transform="translate(-419.779 652.805)">
      <path id="パス_2148-5" data-name="パス 2148" d="M1266.991,633h3.788v.044l-3.063,2.318,1.2,3.823-.033.012-3.106-2.353-3.106,2.353-.032-.012,1.2-3.823-3.062-2.318V633h3.788l1.19-3.8h.043Z" transform="translate(0)" fill="#f08300"/>
    </g>
  </g>
</svg>
