<svg id="グループ_1487" data-name="グループ 1487" xmlns="http://www.w3.org/2000/svg" width="120" height="16.072" viewBox="0 0 120 16.072">
  <path id="パス_2243" data-name="パス 2243" d="M338.459,284.731h4.983l5.435,13.944h-5.1l-.73-2.048h-4.43l-.69,2.048h-4.963Zm2.42,4.865-1.141,3.446H342Z" transform="translate(-332.962 -282.997)" fill="#0068b7"/>
  <path id="パス_2244" data-name="パス 2244" d="M400.141,297.1h4.431v1.142h.039a3.31,3.31,0,0,1,1.168-1,3.658,3.658,0,0,1,1.778-.423,3.716,3.716,0,0,1,1.8.393,3.225,3.225,0,0,1,1.138,1.016,3.913,3.913,0,0,1,.59,1.387,7.225,7.225,0,0,1,.166,1.536v6.3H406.7v-5.515a1.84,1.84,0,0,0-.248-1.1.878.878,0,0,0-.737-.316.9.9,0,0,0-.739.365,1.687,1.687,0,0,0-.286,1.054v5.515h-4.548Z" transform="translate(-381.764 -291.784)" fill="#0068b7"/>
  <path id="パス_2245" data-name="パス 2245" d="M451.477,280.718a2.154,2.154,0,0,1,.188-.9,2.272,2.272,0,0,1,.51-.739,2.477,2.477,0,0,1,.76-.5,2.29,2.29,0,0,1,.923-.188,2.122,2.122,0,0,1,.888.188,2.565,2.565,0,0,1,.738.5,2.322,2.322,0,0,1,.511.739,2.171,2.171,0,0,1,.188.9,2.243,2.243,0,0,1-.7,1.645,2.552,2.552,0,0,1-.738.482,2.239,2.239,0,0,1-.888.177,2.419,2.419,0,0,1-.923-.177,2.468,2.468,0,0,1-.76-.482,2.164,2.164,0,0,1-.51-.728,2.21,2.21,0,0,1-.188-.916m.079,2.995H456.1v10.359h-4.548Z" transform="translate(-419.057 -278.393)" fill="#0068b7"/>
  <path id="パス_2246" data-name="パス 2246" d="M486.04,307.463v-5.435a2.5,2.5,0,0,0-.2-1.143.689.689,0,0,0-.652-.355.9.9,0,0,0-.639.316,1.6,1.6,0,0,0-.307,1.123v5.495H479.7V297.1h4.432v1.142h.039a3.348,3.348,0,0,1,.481-.5,4.143,4.143,0,0,1,.651-.453,3.606,3.606,0,0,1,1.8-.463,4.02,4.02,0,0,1,1.774.364,2.7,2.7,0,0,1,1.181,1.132,4.547,4.547,0,0,1,1.26-1.063,3.745,3.745,0,0,1,1.892-.433,3.32,3.32,0,0,1,2.964,1.516,4.2,4.2,0,0,1,.59,1.409,6.384,6.384,0,0,1,.169,1.407v6.3h-4.55v-5.515a2.132,2.132,0,0,0-.206-1.132.743.743,0,0,0-.642-.287.821.821,0,0,0-.671.365,1.774,1.774,0,0,0-.274,1.074v5.495Z" transform="translate(-439.558 -291.784)" fill="#0068b7"/>
  <path id="パス_2247" data-name="パス 2247" d="M557.651,300.572a.79.79,0,0,0-.324-.7,1.471,1.471,0,0,0-.858-.228,2.736,2.736,0,0,0-1.19.267,4.809,4.809,0,0,0-.995.62l-2.265-2.246a6.617,6.617,0,0,1,2.247-1.4,7.513,7.513,0,0,1,2.678-.491,6.231,6.231,0,0,1,2.442.413,3.754,3.754,0,0,1,1.527,1.142,4.369,4.369,0,0,1,.786,1.693,8.9,8.9,0,0,1,.228,2.048v5.456h-4.117v-.827h-.04a2.16,2.16,0,0,1-1.122.846,4.263,4.263,0,0,1-1.418.256,4.717,4.717,0,0,1-1.251-.176,3.469,3.469,0,0,1-1.162-.572,3.047,3.047,0,0,1-.857-1.025,3.269,3.269,0,0,1-.335-1.555,2.676,2.676,0,0,1,.561-1.763,3.838,3.838,0,0,1,1.428-1.063,6.91,6.91,0,0,1,1.94-.522,16.5,16.5,0,0,1,2.1-.138Zm.04,2.285a4.951,4.951,0,0,0-1.613.216.807.807,0,0,0-.61.808.637.637,0,0,0,.1.365.858.858,0,0,0,.256.246,1.29,1.29,0,0,0,.344.149,1.467,1.467,0,0,0,1.39-.365,1.483,1.483,0,0,0,.394-1.063v-.355Z" transform="translate(-491.809 -291.472)" fill="#0068b7"/>
  <path id="パス_2248" data-name="パス 2248" d="M656.055,280.718a2.17,2.17,0,0,1,.188-.9,2.362,2.362,0,0,1,.511-.739,2.5,2.5,0,0,1,.76-.5,2.307,2.307,0,0,1,.926-.188,2.128,2.128,0,0,1,.887.188,2.572,2.572,0,0,1,.736.5,2.332,2.332,0,0,1,.513.739,2.17,2.17,0,0,1,.187.9,2.231,2.231,0,0,1-.7,1.645,2.558,2.558,0,0,1-.736.482,2.246,2.246,0,0,1-.887.177,2.436,2.436,0,0,1-.926-.177,2.493,2.493,0,0,1-.76-.482,2.245,2.245,0,0,1-.7-1.645m.08,2.995h4.55v10.359h-4.55Z" transform="translate(-567.672 -278.393)" fill="#0068b7"/>
  <path id="パス_2249" data-name="パス 2249" d="M684,297.1h4.432v1.142h.039a3.319,3.319,0,0,1,1.17-1,3.644,3.644,0,0,1,1.776-.423,3.706,3.706,0,0,1,1.8.393,3.226,3.226,0,0,1,1.14,1.016,3.89,3.89,0,0,1,.589,1.387,7.3,7.3,0,0,1,.168,1.536v6.3h-4.552v-5.515a1.862,1.862,0,0,0-.243-1.1.974.974,0,0,0-1.479.049,1.669,1.669,0,0,0-.284,1.054v5.515H684Z" transform="translate(-587.969 -291.784)" fill="#0068b7"/>
  <path id="パス_2250" data-name="パス 2250" d="M741.819,302.068c0,.17,0,.344-.01.522s-.014.325-.028.444h-6.974a.9.9,0,0,0,.186.492,1.65,1.65,0,0,0,.415.374,1.863,1.863,0,0,0,.551.237,2.464,2.464,0,0,0,.621.078,2.21,2.21,0,0,0,1.052-.227,2.021,2.021,0,0,0,.643-.5l3.227,1.634a4.74,4.74,0,0,1-2,1.773,6.756,6.756,0,0,1-3.042.65,6.9,6.9,0,0,1-2.187-.355,5.543,5.543,0,0,1-1.88-1.055,5.1,5.1,0,0,1-1.31-1.742,5.6,5.6,0,0,1-.494-2.423,5.7,5.7,0,0,1,.454-2.313,5.138,5.138,0,0,1,1.23-1.754,5.527,5.527,0,0,1,1.831-1.111,6.346,6.346,0,0,1,2.255-.394,5.7,5.7,0,0,1,2.228.423A5.027,5.027,0,0,1,740.313,298a5.307,5.307,0,0,1,1.113,1.8,6.358,6.358,0,0,1,.393,2.265M737.9,300.59a1.151,1.151,0,0,0-.406-.9,1.6,1.6,0,0,0-1.093-.355,1.571,1.571,0,0,0-1.162.414,1.516,1.516,0,0,0-.473.846Z" transform="translate(-621.819 -291.472)" fill="#0068b7"/>
  <path id="パス_2251" data-name="パス 2251" d="M604.942,281.274V291.2a8.381,8.381,0,0,1-.208,1.9,3.948,3.948,0,0,1-.738,1.576,3.685,3.685,0,0,1-1.436,1.082,5.646,5.646,0,0,1-2.266.4v-14.89Z" transform="translate(-527.164 -280.486)" fill="#0068b7"/>
  <path id="パス_2252" data-name="パス 2252" d="M628.312,281.274V291.2a8.448,8.448,0,0,0,.207,1.9,3.965,3.965,0,0,0,.738,1.576,3.725,3.725,0,0,0,1.438,1.082,5.62,5.62,0,0,0,2.264.4v-14.89Z" transform="translate(-547.518 -280.486)" fill="#0068b7"/>
</svg>
